<mxfile host="app.diagrams.net" modified="2023-08-22T15:10:50.145Z" agent="Mozilla/5.0 (Windows NT 10.0; Win64; x64) AppleWebKit/537.36 (KHTML, like Gecko) Chrome/115.0.0.0 Safari/537.36" etag="yH7kROwn5f5GcPObNWBU" version="21.6.6" type="github" pages="2">
  <diagram name="Entire Setup" id="KPG9frDHrTeNR_pBxYRF">
    <mxGraphModel dx="2345" dy="1894" grid="1" gridSize="10" guides="1" tooltips="1" connect="1" arrows="1" fold="1" page="1" pageScale="1" pageWidth="1100" pageHeight="850" background="none" math="1" shadow="0">
      <root>
        <mxCell id="0" />
        <mxCell id="1" parent="0" />
        <mxCell id="TIZcJ4Cyvrn126za0Mi8-1" value="SMJ 100A" style="rounded=0;whiteSpace=wrap;html=1;strokeWidth=3;align=left;" parent="1" vertex="1">
          <mxGeometry x="100" y="210" width="120" height="60" as="geometry" />
        </mxCell>
        <mxCell id="TIZcJ4Cyvrn126za0Mi8-2" value="SMBV 100A" style="rounded=0;whiteSpace=wrap;html=1;strokeWidth=3;align=left;" parent="1" vertex="1">
          <mxGeometry x="785" y="-830" width="120" height="60" as="geometry" />
        </mxCell>
        <mxCell id="TIZcJ4Cyvrn126za0Mi8-3" value="SMW 200A" style="rounded=0;whiteSpace=wrap;html=1;strokeWidth=3;align=left;" parent="1" vertex="1">
          <mxGeometry x="100" y="110" width="120" height="60" as="geometry" />
        </mxCell>
        <mxCell id="TIZcJ4Cyvrn126za0Mi8-4" value="&lt;font style=&quot;font-size: 11px;&quot;&gt;Power Splitter&lt;/font&gt;" style="rounded=0;whiteSpace=wrap;html=1;strokeWidth=3;" parent="1" vertex="1">
          <mxGeometry x="775" y="-750" width="120" height="50" as="geometry" />
        </mxCell>
        <mxCell id="TIZcJ4Cyvrn126za0Mi8-7" value="" style="rounded=0;whiteSpace=wrap;html=1;strokeWidth=3;" parent="1" vertex="1">
          <mxGeometry x="15" y="-680" width="830" height="140" as="geometry" />
        </mxCell>
        <mxCell id="TIZcJ4Cyvrn126za0Mi8-8" value="NO&amp;nbsp; &amp;nbsp;C&amp;nbsp; &amp;nbsp;NC" style="rounded=0;whiteSpace=wrap;html=1;" parent="1" vertex="1">
          <mxGeometry x="45" y="-675" width="70" height="20" as="geometry" />
        </mxCell>
        <mxCell id="Frwhosp65m-B4slvjgfp-1" value="Relay #1" style="text;html=1;strokeColor=none;fillColor=none;align=center;verticalAlign=middle;whiteSpace=wrap;rounded=0;" parent="1" vertex="1">
          <mxGeometry x="50" y="-655" width="60" height="10" as="geometry" />
        </mxCell>
        <mxCell id="Frwhosp65m-B4slvjgfp-2" value="NO&amp;nbsp; &amp;nbsp;C&amp;nbsp; &amp;nbsp;NC" style="rounded=0;whiteSpace=wrap;html=1;" parent="1" vertex="1">
          <mxGeometry x="145" y="-675" width="70" height="20" as="geometry" />
        </mxCell>
        <mxCell id="Frwhosp65m-B4slvjgfp-3" value="Relay #2" style="text;html=1;strokeColor=none;fillColor=none;align=center;verticalAlign=middle;whiteSpace=wrap;rounded=0;" parent="1" vertex="1">
          <mxGeometry x="150" y="-655" width="60" height="10" as="geometry" />
        </mxCell>
        <mxCell id="Frwhosp65m-B4slvjgfp-4" value="NO&amp;nbsp; &amp;nbsp;C&amp;nbsp; &amp;nbsp;NC" style="rounded=0;whiteSpace=wrap;html=1;" parent="1" vertex="1">
          <mxGeometry x="255" y="-675" width="70" height="20" as="geometry" />
        </mxCell>
        <mxCell id="Frwhosp65m-B4slvjgfp-5" value="Relay #3" style="text;html=1;strokeColor=none;fillColor=none;align=center;verticalAlign=middle;whiteSpace=wrap;rounded=0;" parent="1" vertex="1">
          <mxGeometry x="260" y="-655" width="60" height="10" as="geometry" />
        </mxCell>
        <mxCell id="Frwhosp65m-B4slvjgfp-6" value="NO&amp;nbsp; &amp;nbsp;C&amp;nbsp; &amp;nbsp;NC" style="rounded=0;whiteSpace=wrap;html=1;" parent="1" vertex="1">
          <mxGeometry x="365" y="-675" width="70" height="20" as="geometry" />
        </mxCell>
        <mxCell id="Frwhosp65m-B4slvjgfp-7" value="Relay #4" style="text;html=1;strokeColor=none;fillColor=none;align=center;verticalAlign=middle;whiteSpace=wrap;rounded=0;" parent="1" vertex="1">
          <mxGeometry x="370" y="-655" width="60" height="10" as="geometry" />
        </mxCell>
        <mxCell id="Frwhosp65m-B4slvjgfp-8" value="" style="ellipse;whiteSpace=wrap;html=1;aspect=fixed;" parent="1" vertex="1">
          <mxGeometry x="485" y="-635" width="80" height="80" as="geometry" />
        </mxCell>
        <mxCell id="Frwhosp65m-B4slvjgfp-9" value="4" style="ellipse;whiteSpace=wrap;html=1;aspect=fixed;fillColor=#ffe6cc;strokeColor=#d79b00;" parent="1" vertex="1">
          <mxGeometry x="520" y="-625" width="10" height="10" as="geometry" />
        </mxCell>
        <mxCell id="Frwhosp65m-B4slvjgfp-10" value="5" style="ellipse;whiteSpace=wrap;html=1;aspect=fixed;fillColor=#ffe6cc;strokeColor=#d79b00;" parent="1" vertex="1">
          <mxGeometry x="545" y="-615" width="10" height="10" as="geometry" />
        </mxCell>
        <mxCell id="Frwhosp65m-B4slvjgfp-11" value="6" style="ellipse;whiteSpace=wrap;html=1;aspect=fixed;fillColor=#f8cecc;strokeColor=#b85450;" parent="1" vertex="1">
          <mxGeometry x="545" y="-585" width="10" height="10" as="geometry" />
        </mxCell>
        <mxCell id="Frwhosp65m-B4slvjgfp-12" value="1" style="ellipse;whiteSpace=wrap;html=1;aspect=fixed;fillColor=#f8cecc;strokeColor=#b85450;" parent="1" vertex="1">
          <mxGeometry x="520" y="-575" width="10" height="10" as="geometry" />
        </mxCell>
        <mxCell id="Frwhosp65m-B4slvjgfp-13" value="2" style="ellipse;whiteSpace=wrap;html=1;aspect=fixed;fillColor=#dae8fc;strokeColor=#6c8ebf;" parent="1" vertex="1">
          <mxGeometry x="495" y="-585" width="10" height="10" as="geometry" />
        </mxCell>
        <mxCell id="Frwhosp65m-B4slvjgfp-14" value="3" style="ellipse;whiteSpace=wrap;html=1;aspect=fixed;fillColor=#dae8fc;strokeColor=#6c8ebf;" parent="1" vertex="1">
          <mxGeometry x="495" y="-615" width="10" height="10" as="geometry" />
        </mxCell>
        <mxCell id="Frwhosp65m-B4slvjgfp-15" value="&lt;font style=&quot;font-size: 10px;&quot;&gt;C&lt;/font&gt;" style="ellipse;whiteSpace=wrap;html=1;aspect=fixed;fillColor=#D4D4D4;fontColor=#333333;strokeColor=#666666;" parent="1" vertex="1">
          <mxGeometry x="520" y="-600" width="10" height="10" as="geometry" />
        </mxCell>
        <mxCell id="Frwhosp65m-B4slvjgfp-16" value="Relay A" style="text;html=1;strokeColor=none;fillColor=none;align=center;verticalAlign=middle;whiteSpace=wrap;rounded=0;" parent="1" vertex="1">
          <mxGeometry x="495" y="-645" width="60" height="10" as="geometry" />
        </mxCell>
        <mxCell id="Frwhosp65m-B4slvjgfp-17" value="" style="ellipse;whiteSpace=wrap;html=1;aspect=fixed;" parent="1" vertex="1">
          <mxGeometry x="575" y="-635" width="80" height="80" as="geometry" />
        </mxCell>
        <mxCell id="Frwhosp65m-B4slvjgfp-18" value="1" style="ellipse;whiteSpace=wrap;html=1;aspect=fixed;fillColor=#f8cecc;strokeColor=#b85450;" parent="1" vertex="1">
          <mxGeometry x="610" y="-625" width="10" height="10" as="geometry" />
        </mxCell>
        <mxCell id="Frwhosp65m-B4slvjgfp-19" value="2" style="ellipse;whiteSpace=wrap;html=1;aspect=fixed;fillColor=#9C630E;strokeColor=#755500;gradientColor=none;" parent="1" vertex="1">
          <mxGeometry x="635" y="-615" width="10" height="10" as="geometry" />
        </mxCell>
        <mxCell id="Frwhosp65m-B4slvjgfp-20" value="3" style="ellipse;whiteSpace=wrap;html=1;aspect=fixed;fillColor=#D4D4D4;fontColor=#333333;strokeColor=#666666;" parent="1" vertex="1">
          <mxGeometry x="635" y="-585" width="10" height="10" as="geometry" />
        </mxCell>
        <mxCell id="Frwhosp65m-B4slvjgfp-21" value="4" style="ellipse;whiteSpace=wrap;html=1;aspect=fixed;fillColor=#f8cecc;strokeColor=#b85450;" parent="1" vertex="1">
          <mxGeometry x="610" y="-575" width="10" height="10" as="geometry" />
        </mxCell>
        <mxCell id="Frwhosp65m-B4slvjgfp-22" value="5" style="ellipse;whiteSpace=wrap;html=1;aspect=fixed;fillColor=#f8cecc;strokeColor=#b85450;" parent="1" vertex="1">
          <mxGeometry x="585" y="-585" width="10" height="10" as="geometry" />
        </mxCell>
        <mxCell id="Frwhosp65m-B4slvjgfp-23" value="6" style="ellipse;whiteSpace=wrap;html=1;aspect=fixed;fillColor=#f8cecc;strokeColor=#b85450;" parent="1" vertex="1">
          <mxGeometry x="585" y="-615" width="10" height="10" as="geometry" />
        </mxCell>
        <mxCell id="Frwhosp65m-B4slvjgfp-24" value="&lt;font style=&quot;font-size: 10px;&quot;&gt;C&lt;/font&gt;" style="ellipse;whiteSpace=wrap;html=1;aspect=fixed;fillColor=#D4D4D4;strokeColor=#737373;" parent="1" vertex="1">
          <mxGeometry x="610" y="-600" width="10" height="10" as="geometry" />
        </mxCell>
        <mxCell id="Frwhosp65m-B4slvjgfp-25" value="Relay B" style="text;html=1;strokeColor=none;fillColor=none;align=center;verticalAlign=middle;whiteSpace=wrap;rounded=0;" parent="1" vertex="1">
          <mxGeometry x="585" y="-645" width="60" height="10" as="geometry" />
        </mxCell>
        <mxCell id="Frwhosp65m-B4slvjgfp-26" value="" style="ellipse;whiteSpace=wrap;html=1;aspect=fixed;" parent="1" vertex="1">
          <mxGeometry x="665" y="-635" width="80" height="80" as="geometry" />
        </mxCell>
        <mxCell id="Frwhosp65m-B4slvjgfp-27" value="1" style="ellipse;whiteSpace=wrap;html=1;aspect=fixed;fillColor=#dae8fc;strokeColor=#6c8ebf;" parent="1" vertex="1">
          <mxGeometry x="700" y="-625" width="10" height="10" as="geometry" />
        </mxCell>
        <mxCell id="Frwhosp65m-B4slvjgfp-28" value="2" style="ellipse;whiteSpace=wrap;html=1;aspect=fixed;fillColor=#f8cecc;strokeColor=#b85450;" parent="1" vertex="1">
          <mxGeometry x="725" y="-615" width="10" height="10" as="geometry" />
        </mxCell>
        <mxCell id="Frwhosp65m-B4slvjgfp-29" value="3" style="ellipse;whiteSpace=wrap;html=1;aspect=fixed;fillColor=#f8cecc;strokeColor=#b85450;" parent="1" vertex="1">
          <mxGeometry x="725" y="-585" width="10" height="10" as="geometry" />
        </mxCell>
        <mxCell id="Frwhosp65m-B4slvjgfp-30" value="4" style="ellipse;whiteSpace=wrap;html=1;aspect=fixed;fillColor=#f8cecc;strokeColor=#b85450;" parent="1" vertex="1">
          <mxGeometry x="700" y="-575" width="10" height="10" as="geometry" />
        </mxCell>
        <mxCell id="Frwhosp65m-B4slvjgfp-31" value="5" style="ellipse;whiteSpace=wrap;html=1;aspect=fixed;fillColor=#f8cecc;strokeColor=#b85450;" parent="1" vertex="1">
          <mxGeometry x="675" y="-585" width="10" height="10" as="geometry" />
        </mxCell>
        <mxCell id="Frwhosp65m-B4slvjgfp-32" value="6" style="ellipse;whiteSpace=wrap;html=1;aspect=fixed;fillColor=#f8cecc;strokeColor=#b85450;" parent="1" vertex="1">
          <mxGeometry x="675" y="-615" width="10" height="10" as="geometry" />
        </mxCell>
        <mxCell id="Frwhosp65m-B4slvjgfp-33" value="&lt;font style=&quot;font-size: 10px;&quot;&gt;C&lt;/font&gt;" style="ellipse;whiteSpace=wrap;html=1;aspect=fixed;fillColor=#D4D4D4;fontColor=#333333;strokeColor=#666666;" parent="1" vertex="1">
          <mxGeometry x="700" y="-600" width="10" height="10" as="geometry" />
        </mxCell>
        <mxCell id="Frwhosp65m-B4slvjgfp-34" value="Relay C" style="text;html=1;strokeColor=none;fillColor=none;align=center;verticalAlign=middle;whiteSpace=wrap;rounded=0;" parent="1" vertex="1">
          <mxGeometry x="675" y="-645" width="60" height="10" as="geometry" />
        </mxCell>
        <mxCell id="Frwhosp65m-B4slvjgfp-35" value="" style="ellipse;whiteSpace=wrap;html=1;aspect=fixed;" parent="1" vertex="1">
          <mxGeometry x="755" y="-635" width="80" height="80" as="geometry" />
        </mxCell>
        <mxCell id="Frwhosp65m-B4slvjgfp-36" value="6" style="ellipse;whiteSpace=wrap;html=1;aspect=fixed;fillColor=#dae8fc;strokeColor=#6c8ebf;" parent="1" vertex="1">
          <mxGeometry x="805" y="-625" width="10" height="10" as="geometry" />
        </mxCell>
        <mxCell id="Frwhosp65m-B4slvjgfp-37" value="1" style="ellipse;whiteSpace=wrap;html=1;aspect=fixed;fillColor=#f8cecc;strokeColor=#b85450;" parent="1" vertex="1">
          <mxGeometry x="815" y="-600" width="10" height="10" as="geometry" />
        </mxCell>
        <mxCell id="Frwhosp65m-B4slvjgfp-38" value="2" style="ellipse;whiteSpace=wrap;html=1;aspect=fixed;fillColor=#f8cecc;strokeColor=#b85450;" parent="1" vertex="1">
          <mxGeometry x="805" y="-575" width="10" height="10" as="geometry" />
        </mxCell>
        <mxCell id="Frwhosp65m-B4slvjgfp-39" value="3" style="ellipse;whiteSpace=wrap;html=1;aspect=fixed;fillColor=#dae8fc;strokeColor=#6c8ebf;" parent="1" vertex="1">
          <mxGeometry x="775" y="-575" width="10" height="10" as="geometry" />
        </mxCell>
        <mxCell id="Frwhosp65m-B4slvjgfp-40" value="4" style="ellipse;whiteSpace=wrap;html=1;aspect=fixed;fillColor=#ffe6cc;strokeColor=#d79b00;" parent="1" vertex="1">
          <mxGeometry x="765" y="-600" width="10" height="10" as="geometry" />
        </mxCell>
        <mxCell id="Frwhosp65m-B4slvjgfp-41" value="5" style="ellipse;whiteSpace=wrap;html=1;aspect=fixed;fillColor=#ffe6cc;strokeColor=#d79b00;" parent="1" vertex="1">
          <mxGeometry x="775" y="-625" width="10" height="10" as="geometry" />
        </mxCell>
        <mxCell id="Frwhosp65m-B4slvjgfp-42" value="&lt;font style=&quot;font-size: 10px;&quot;&gt;C&lt;/font&gt;" style="ellipse;whiteSpace=wrap;html=1;aspect=fixed;fillColor=#D4D4D4;fontColor=#333333;strokeColor=#666666;" parent="1" vertex="1">
          <mxGeometry x="790" y="-600" width="10" height="10" as="geometry" />
        </mxCell>
        <mxCell id="Frwhosp65m-B4slvjgfp-43" value="Relay D" style="text;html=1;strokeColor=none;fillColor=none;align=center;verticalAlign=middle;whiteSpace=wrap;rounded=0;" parent="1" vertex="1">
          <mxGeometry x="765" y="-645" width="60" height="10" as="geometry" />
        </mxCell>
        <mxCell id="Frwhosp65m-B4slvjgfp-50" value="NO&amp;nbsp; &amp;nbsp;C&amp;nbsp; &amp;nbsp;NC" style="rounded=0;whiteSpace=wrap;html=1;" parent="1" vertex="1">
          <mxGeometry x="490" y="-675" width="70" height="20" as="geometry" />
        </mxCell>
        <mxCell id="Frwhosp65m-B4slvjgfp-51" value="Relay #5" style="text;html=1;strokeColor=none;fillColor=none;align=center;verticalAlign=middle;whiteSpace=wrap;rounded=0;" parent="1" vertex="1">
          <mxGeometry x="495" y="-655" width="60" height="10" as="geometry" />
        </mxCell>
        <mxCell id="Frwhosp65m-B4slvjgfp-54" value="&lt;font style=&quot;font-size: 20px;&quot;&gt;AR Amplifier&lt;br&gt;Top of Bench&lt;br&gt;&lt;/font&gt;" style="rounded=0;whiteSpace=wrap;html=1;strokeWidth=3;" parent="1" vertex="1">
          <mxGeometry x="505" y="-830" width="245" height="110" as="geometry" />
        </mxCell>
        <mxCell id="Frwhosp65m-B4slvjgfp-55" value="RF INPUT" style="rounded=0;whiteSpace=wrap;html=1;" parent="1" vertex="1">
          <mxGeometry x="515" y="-830" width="70" height="20" as="geometry" />
        </mxCell>
        <mxCell id="Frwhosp65m-B4slvjgfp-57" value="RF OUTPUT" style="rounded=0;whiteSpace=wrap;html=1;" parent="1" vertex="1">
          <mxGeometry x="660" y="-830" width="80" height="20" as="geometry" />
        </mxCell>
        <mxCell id="Frwhosp65m-B4slvjgfp-61" value="Microcircuits LNA&lt;br&gt;&lt;br&gt;" style="rounded=0;whiteSpace=wrap;html=1;strokeWidth=3;" parent="1" vertex="1">
          <mxGeometry x="55" y="-830" width="130" height="60" as="geometry" />
        </mxCell>
        <mxCell id="Frwhosp65m-B4slvjgfp-64" value="IN" style="rounded=0;whiteSpace=wrap;html=1;" parent="1" vertex="1">
          <mxGeometry x="60" y="-800" width="20" height="20" as="geometry" />
        </mxCell>
        <mxCell id="Frwhosp65m-B4slvjgfp-65" value="OUT" style="rounded=0;whiteSpace=wrap;html=1;" parent="1" vertex="1">
          <mxGeometry x="150" y="-800" width="30" height="20" as="geometry" />
        </mxCell>
        <mxCell id="Frwhosp65m-B4slvjgfp-66" value="&lt;font style=&quot;font-size: 16px;&quot;&gt;R &amp;amp; S Broadband Amplifier&lt;br&gt;&lt;br&gt;&lt;/font&gt;" style="rounded=0;whiteSpace=wrap;html=1;strokeWidth=3;" parent="1" vertex="1">
          <mxGeometry x="220" y="-830" width="240" height="110" as="geometry" />
        </mxCell>
        <mxCell id="Frwhosp65m-B4slvjgfp-67" value="INPUT" style="rounded=0;whiteSpace=wrap;html=1;align=left;" parent="1" vertex="1">
          <mxGeometry x="370" y="-750" width="80" height="20" as="geometry" />
        </mxCell>
        <mxCell id="Frwhosp65m-B4slvjgfp-68" value="" style="ellipse;whiteSpace=wrap;html=1;aspect=fixed;" parent="1" vertex="1">
          <mxGeometry x="415" y="-745" width="10" height="10" as="geometry" />
        </mxCell>
        <mxCell id="Frwhosp65m-B4slvjgfp-69" value="" style="endArrow=classic;html=1;rounded=0;strokeWidth=1;strokeColor=default;" parent="1" edge="1">
          <mxGeometry width="50" height="50" relative="1" as="geometry">
            <mxPoint x="440" y="-740.11" as="sourcePoint" />
            <mxPoint x="415" y="-740.11" as="targetPoint" />
          </mxGeometry>
        </mxCell>
        <mxCell id="Frwhosp65m-B4slvjgfp-76" value="OUTPUT" style="rounded=0;whiteSpace=wrap;html=1;align=left;" parent="1" vertex="1">
          <mxGeometry x="235" y="-750" width="85" height="20" as="geometry" />
        </mxCell>
        <mxCell id="Frwhosp65m-B4slvjgfp-77" value="" style="ellipse;whiteSpace=wrap;html=1;aspect=fixed;" parent="1" vertex="1">
          <mxGeometry x="290" y="-745" width="10" height="10" as="geometry" />
        </mxCell>
        <mxCell id="Frwhosp65m-B4slvjgfp-78" value="" style="endArrow=classic;html=1;rounded=0;strokeWidth=1;strokeColor=default;" parent="1" edge="1">
          <mxGeometry width="50" height="50" relative="1" as="geometry">
            <mxPoint x="290" y="-740.11" as="sourcePoint" />
            <mxPoint x="315" y="-740.11" as="targetPoint" />
          </mxGeometry>
        </mxCell>
        <mxCell id="Frwhosp65m-B4slvjgfp-83" value="&lt;font style=&quot;font-size: 18px;&quot;&gt;Keysight N8737A DC Power Supply&lt;/font&gt;" style="rounded=0;whiteSpace=wrap;html=1;strokeWidth=3;" parent="1" vertex="1">
          <mxGeometry x="1232.5" y="-827.5" width="300" height="110" as="geometry" />
        </mxCell>
        <mxCell id="Frwhosp65m-B4slvjgfp-84" value="&lt;font style=&quot;font-size: 18px;&quot;&gt;Keysight N6700B MPS Mainframe&lt;/font&gt;" style="rounded=0;whiteSpace=wrap;html=1;strokeWidth=3;" parent="1" vertex="1">
          <mxGeometry x="1542.5" y="-827.5" width="290" height="110" as="geometry" />
        </mxCell>
        <mxCell id="Frwhosp65m-B4slvjgfp-85" value="&lt;font style=&quot;font-size: 16px;&quot;&gt;Agilent E3631A DC PSU&lt;br&gt;&lt;br&gt;&lt;br&gt;&lt;br&gt;&lt;/font&gt;" style="rounded=0;whiteSpace=wrap;html=1;strokeWidth=3;" parent="1" vertex="1">
          <mxGeometry x="965" y="-827.5" width="250" height="110" as="geometry" />
        </mxCell>
        <mxCell id="Frwhosp65m-B4slvjgfp-87" value="&lt;font style=&quot;&quot;&gt;&lt;span style=&quot;font-size: 24px;&quot;&gt;R &amp;amp; S ZVA&lt;/span&gt;&lt;br&gt;&lt;font style=&quot;font-size: 19px;&quot;&gt;Vector Network Analyzer&lt;/font&gt;&lt;br&gt;&lt;br&gt;&lt;br&gt;&lt;br&gt;&lt;br&gt;&lt;br&gt;&lt;br&gt;&lt;br&gt;&lt;br&gt;&lt;br&gt;&lt;/font&gt;" style="rounded=0;whiteSpace=wrap;html=1;strokeWidth=3;" parent="1" vertex="1">
          <mxGeometry x="1032.5" y="-605" width="730" height="190" as="geometry" />
        </mxCell>
        <mxCell id="Frwhosp65m-B4slvjgfp-88" value="&lt;font style=&quot;font-size: 20px;&quot;&gt;Agilent PXA&lt;br&gt;&lt;br&gt;&lt;/font&gt;" style="rounded=0;whiteSpace=wrap;html=1;align=left;strokeWidth=3;" parent="1" vertex="1">
          <mxGeometry x="1392.5" y="-233.46000000000004" width="250" height="110" as="geometry" />
        </mxCell>
        <mxCell id="Frwhosp65m-B4slvjgfp-89" value="&lt;font style=&quot;font-size: 18px;&quot;&gt;R&amp;amp;S FSW&lt;br&gt;&lt;br&gt;&lt;/font&gt;" style="rounded=0;whiteSpace=wrap;html=1;align=left;strokeWidth=3;" parent="1" vertex="1">
          <mxGeometry x="1707.5" y="-290" width="220" height="90" as="geometry" />
        </mxCell>
        <mxCell id="Frwhosp65m-B4slvjgfp-90" value="" style="rounded=0;whiteSpace=wrap;html=1;fillColor=#d5e8d4;strokeColor=#82b366;" parent="1" vertex="1">
          <mxGeometry x="1042.5" y="-545" width="170" height="120" as="geometry" />
        </mxCell>
        <mxCell id="Frwhosp65m-B4slvjgfp-94" value="" style="rounded=0;whiteSpace=wrap;html=1;" parent="1" vertex="1">
          <mxGeometry x="1052.5" y="-525" width="90" height="20" as="geometry" />
        </mxCell>
        <mxCell id="Frwhosp65m-B4slvjgfp-95" value="" style="rounded=0;whiteSpace=wrap;html=1;" parent="1" vertex="1">
          <mxGeometry x="1052.5" y="-480" width="90" height="20" as="geometry" />
        </mxCell>
        <mxCell id="Frwhosp65m-B4slvjgfp-97" value="" style="ellipse;whiteSpace=wrap;html=1;aspect=fixed;" parent="1" vertex="1">
          <mxGeometry x="1162.5" y="-475" width="40" height="40" as="geometry" />
        </mxCell>
        <mxCell id="Frwhosp65m-B4slvjgfp-98" value="&lt;font color=&quot;#006e00&quot; style=&quot;font-size: 29px;&quot;&gt;3&lt;/font&gt;" style="text;html=1;strokeColor=none;fillColor=none;align=center;verticalAlign=middle;whiteSpace=wrap;rounded=0;" parent="1" vertex="1">
          <mxGeometry x="1152.5" y="-530" width="60" height="30" as="geometry" />
        </mxCell>
        <mxCell id="Frwhosp65m-B4slvjgfp-99" value="" style="ellipse;whiteSpace=wrap;html=1;aspect=fixed;" parent="1" vertex="1">
          <mxGeometry x="1062.5" y="-520" width="10" height="10" as="geometry" />
        </mxCell>
        <mxCell id="Frwhosp65m-B4slvjgfp-100" value="&lt;font style=&quot;font-size: 8px;&quot;&gt;SRC&lt;/font&gt;" style="text;html=1;strokeColor=none;fillColor=none;align=center;verticalAlign=middle;whiteSpace=wrap;rounded=0;" parent="1" vertex="1">
          <mxGeometry x="1057.5" y="-545" width="25" height="20" as="geometry" />
        </mxCell>
        <mxCell id="IWHVhnK3SDPOk-1DZyC3-1" value="" style="ellipse;whiteSpace=wrap;html=1;aspect=fixed;" parent="1" vertex="1">
          <mxGeometry x="1092.5" y="-520" width="10" height="10" as="geometry" />
        </mxCell>
        <mxCell id="IWHVhnK3SDPOk-1DZyC3-2" value="" style="ellipse;whiteSpace=wrap;html=1;aspect=fixed;" parent="1" vertex="1">
          <mxGeometry x="1122.5" y="-520" width="10" height="10" as="geometry" />
        </mxCell>
        <mxCell id="IWHVhnK3SDPOk-1DZyC3-3" value="" style="ellipse;whiteSpace=wrap;html=1;aspect=fixed;" parent="1" vertex="1">
          <mxGeometry x="1062.5" y="-475" width="10" height="10" as="geometry" />
        </mxCell>
        <mxCell id="IWHVhnK3SDPOk-1DZyC3-4" value="" style="ellipse;whiteSpace=wrap;html=1;aspect=fixed;" parent="1" vertex="1">
          <mxGeometry x="1092.5" y="-475" width="10" height="10" as="geometry" />
        </mxCell>
        <mxCell id="IWHVhnK3SDPOk-1DZyC3-5" value="" style="ellipse;whiteSpace=wrap;html=1;aspect=fixed;" parent="1" vertex="1">
          <mxGeometry x="1122.5" y="-475" width="10" height="10" as="geometry" />
        </mxCell>
        <mxCell id="IWHVhnK3SDPOk-1DZyC3-6" value="&lt;font style=&quot;font-size: 8px;&quot;&gt;REF&lt;/font&gt;" style="text;html=1;strokeColor=none;fillColor=none;align=center;verticalAlign=middle;whiteSpace=wrap;rounded=0;" parent="1" vertex="1">
          <mxGeometry x="1087.5" y="-545" width="20" height="20" as="geometry" />
        </mxCell>
        <mxCell id="IWHVhnK3SDPOk-1DZyC3-7" value="&lt;font style=&quot;font-size: 8px;&quot;&gt;MEAS&lt;/font&gt;" style="text;html=1;strokeColor=none;fillColor=none;align=center;verticalAlign=middle;whiteSpace=wrap;rounded=0;" parent="1" vertex="1">
          <mxGeometry x="1117.5" y="-545" width="20" height="20" as="geometry" />
        </mxCell>
        <mxCell id="IWHVhnK3SDPOk-1DZyC3-8" value="&lt;font style=&quot;font-size: 7px;&quot;&gt;OUT&lt;/font&gt;" style="text;html=1;strokeColor=none;fillColor=none;align=center;verticalAlign=middle;whiteSpace=wrap;rounded=0;" parent="1" vertex="1">
          <mxGeometry x="1072.5" y="-520" width="20" height="10" as="geometry" />
        </mxCell>
        <mxCell id="IWHVhnK3SDPOk-1DZyC3-9" value="&lt;font style=&quot;font-size: 7px;&quot;&gt;IN&lt;/font&gt;" style="text;html=1;strokeColor=none;fillColor=none;align=center;verticalAlign=middle;whiteSpace=wrap;rounded=0;" parent="1" vertex="1">
          <mxGeometry x="1072.5" y="-475" width="20" height="10" as="geometry" />
        </mxCell>
        <mxCell id="IWHVhnK3SDPOk-1DZyC3-26" value="" style="rounded=0;whiteSpace=wrap;html=1;fillColor=#f8cecc;strokeColor=#b85450;" parent="1" vertex="1">
          <mxGeometry x="1222.5" y="-545" width="170" height="120" as="geometry" />
        </mxCell>
        <mxCell id="IWHVhnK3SDPOk-1DZyC3-27" value="" style="rounded=0;whiteSpace=wrap;html=1;" parent="1" vertex="1">
          <mxGeometry x="1232.5" y="-525" width="90" height="20" as="geometry" />
        </mxCell>
        <mxCell id="IWHVhnK3SDPOk-1DZyC3-28" value="" style="rounded=0;whiteSpace=wrap;html=1;" parent="1" vertex="1">
          <mxGeometry x="1232.5" y="-480" width="90" height="20" as="geometry" />
        </mxCell>
        <mxCell id="IWHVhnK3SDPOk-1DZyC3-29" value="" style="ellipse;whiteSpace=wrap;html=1;aspect=fixed;" parent="1" vertex="1">
          <mxGeometry x="1342.5" y="-475" width="40" height="40" as="geometry" />
        </mxCell>
        <mxCell id="IWHVhnK3SDPOk-1DZyC3-30" value="&lt;font color=&quot;#ff0000&quot; style=&quot;font-size: 29px;&quot;&gt;1&lt;/font&gt;" style="text;html=1;strokeColor=none;fillColor=none;align=center;verticalAlign=middle;whiteSpace=wrap;rounded=0;" parent="1" vertex="1">
          <mxGeometry x="1332.5" y="-530" width="60" height="30" as="geometry" />
        </mxCell>
        <mxCell id="IWHVhnK3SDPOk-1DZyC3-31" value="" style="ellipse;whiteSpace=wrap;html=1;aspect=fixed;" parent="1" vertex="1">
          <mxGeometry x="1242.5" y="-520" width="10" height="10" as="geometry" />
        </mxCell>
        <mxCell id="IWHVhnK3SDPOk-1DZyC3-32" value="&lt;font style=&quot;font-size: 8px;&quot;&gt;SRC&lt;/font&gt;" style="text;html=1;strokeColor=none;fillColor=none;align=center;verticalAlign=middle;whiteSpace=wrap;rounded=0;" parent="1" vertex="1">
          <mxGeometry x="1237.5" y="-545" width="25" height="20" as="geometry" />
        </mxCell>
        <mxCell id="IWHVhnK3SDPOk-1DZyC3-33" value="" style="ellipse;whiteSpace=wrap;html=1;aspect=fixed;" parent="1" vertex="1">
          <mxGeometry x="1272.5" y="-520" width="10" height="10" as="geometry" />
        </mxCell>
        <mxCell id="IWHVhnK3SDPOk-1DZyC3-34" value="" style="ellipse;whiteSpace=wrap;html=1;aspect=fixed;" parent="1" vertex="1">
          <mxGeometry x="1302.5" y="-520" width="10" height="10" as="geometry" />
        </mxCell>
        <mxCell id="IWHVhnK3SDPOk-1DZyC3-35" value="" style="ellipse;whiteSpace=wrap;html=1;aspect=fixed;" parent="1" vertex="1">
          <mxGeometry x="1242.5" y="-475" width="10" height="10" as="geometry" />
        </mxCell>
        <mxCell id="IWHVhnK3SDPOk-1DZyC3-36" value="" style="ellipse;whiteSpace=wrap;html=1;aspect=fixed;" parent="1" vertex="1">
          <mxGeometry x="1272.5" y="-475" width="10" height="10" as="geometry" />
        </mxCell>
        <mxCell id="IWHVhnK3SDPOk-1DZyC3-37" value="" style="ellipse;whiteSpace=wrap;html=1;aspect=fixed;" parent="1" vertex="1">
          <mxGeometry x="1302.5" y="-475" width="10" height="10" as="geometry" />
        </mxCell>
        <mxCell id="IWHVhnK3SDPOk-1DZyC3-38" value="&lt;font style=&quot;font-size: 8px;&quot;&gt;REF&lt;/font&gt;" style="text;html=1;strokeColor=none;fillColor=none;align=center;verticalAlign=middle;whiteSpace=wrap;rounded=0;" parent="1" vertex="1">
          <mxGeometry x="1267.5" y="-545" width="20" height="20" as="geometry" />
        </mxCell>
        <mxCell id="IWHVhnK3SDPOk-1DZyC3-39" value="&lt;font style=&quot;font-size: 8px;&quot;&gt;MEAS&lt;/font&gt;" style="text;html=1;strokeColor=none;fillColor=none;align=center;verticalAlign=middle;whiteSpace=wrap;rounded=0;" parent="1" vertex="1">
          <mxGeometry x="1297.5" y="-545" width="20" height="20" as="geometry" />
        </mxCell>
        <mxCell id="IWHVhnK3SDPOk-1DZyC3-40" value="&lt;font style=&quot;font-size: 7px;&quot;&gt;OUT&lt;/font&gt;" style="text;html=1;strokeColor=none;fillColor=none;align=center;verticalAlign=middle;whiteSpace=wrap;rounded=0;" parent="1" vertex="1">
          <mxGeometry x="1252.5" y="-520" width="20" height="10" as="geometry" />
        </mxCell>
        <mxCell id="IWHVhnK3SDPOk-1DZyC3-41" value="&lt;font style=&quot;font-size: 7px;&quot;&gt;IN&lt;/font&gt;" style="text;html=1;strokeColor=none;fillColor=none;align=center;verticalAlign=middle;whiteSpace=wrap;rounded=0;" parent="1" vertex="1">
          <mxGeometry x="1252.5" y="-475" width="20" height="10" as="geometry" />
        </mxCell>
        <mxCell id="IWHVhnK3SDPOk-1DZyC3-42" value="" style="rounded=0;whiteSpace=wrap;html=1;fillColor=#dae8fc;strokeColor=#6c8ebf;" parent="1" vertex="1">
          <mxGeometry x="1402.5" y="-545" width="170" height="120" as="geometry" />
        </mxCell>
        <mxCell id="IWHVhnK3SDPOk-1DZyC3-43" value="" style="rounded=0;whiteSpace=wrap;html=1;" parent="1" vertex="1">
          <mxGeometry x="1412.5" y="-525" width="90" height="20" as="geometry" />
        </mxCell>
        <mxCell id="IWHVhnK3SDPOk-1DZyC3-44" value="" style="rounded=0;whiteSpace=wrap;html=1;" parent="1" vertex="1">
          <mxGeometry x="1412.5" y="-480" width="90" height="20" as="geometry" />
        </mxCell>
        <mxCell id="IWHVhnK3SDPOk-1DZyC3-45" value="" style="ellipse;whiteSpace=wrap;html=1;aspect=fixed;" parent="1" vertex="1">
          <mxGeometry x="1522.5" y="-475" width="40" height="40" as="geometry" />
        </mxCell>
        <mxCell id="IWHVhnK3SDPOk-1DZyC3-46" value="&lt;font color=&quot;#3333ff&quot; style=&quot;font-size: 29px;&quot;&gt;4&lt;/font&gt;" style="text;html=1;strokeColor=none;fillColor=none;align=center;verticalAlign=middle;whiteSpace=wrap;rounded=0;" parent="1" vertex="1">
          <mxGeometry x="1512.5" y="-530" width="60" height="30" as="geometry" />
        </mxCell>
        <mxCell id="IWHVhnK3SDPOk-1DZyC3-47" value="" style="ellipse;whiteSpace=wrap;html=1;aspect=fixed;" parent="1" vertex="1">
          <mxGeometry x="1422.5" y="-520" width="10" height="10" as="geometry" />
        </mxCell>
        <mxCell id="IWHVhnK3SDPOk-1DZyC3-48" value="&lt;font style=&quot;font-size: 8px;&quot;&gt;SRC&lt;/font&gt;" style="text;html=1;strokeColor=none;fillColor=none;align=center;verticalAlign=middle;whiteSpace=wrap;rounded=0;" parent="1" vertex="1">
          <mxGeometry x="1417.5" y="-545" width="25" height="20" as="geometry" />
        </mxCell>
        <mxCell id="IWHVhnK3SDPOk-1DZyC3-49" value="" style="ellipse;whiteSpace=wrap;html=1;aspect=fixed;" parent="1" vertex="1">
          <mxGeometry x="1452.5" y="-520" width="10" height="10" as="geometry" />
        </mxCell>
        <mxCell id="IWHVhnK3SDPOk-1DZyC3-50" value="" style="ellipse;whiteSpace=wrap;html=1;aspect=fixed;" parent="1" vertex="1">
          <mxGeometry x="1482.5" y="-520" width="10" height="10" as="geometry" />
        </mxCell>
        <mxCell id="IWHVhnK3SDPOk-1DZyC3-51" value="" style="ellipse;whiteSpace=wrap;html=1;aspect=fixed;" parent="1" vertex="1">
          <mxGeometry x="1422.5" y="-475" width="10" height="10" as="geometry" />
        </mxCell>
        <mxCell id="IWHVhnK3SDPOk-1DZyC3-52" value="" style="ellipse;whiteSpace=wrap;html=1;aspect=fixed;" parent="1" vertex="1">
          <mxGeometry x="1452.5" y="-475" width="10" height="10" as="geometry" />
        </mxCell>
        <mxCell id="IWHVhnK3SDPOk-1DZyC3-53" value="" style="ellipse;whiteSpace=wrap;html=1;aspect=fixed;" parent="1" vertex="1">
          <mxGeometry x="1482.5" y="-475" width="10" height="10" as="geometry" />
        </mxCell>
        <mxCell id="IWHVhnK3SDPOk-1DZyC3-54" value="&lt;font style=&quot;font-size: 8px;&quot;&gt;REF&lt;/font&gt;" style="text;html=1;strokeColor=none;fillColor=none;align=center;verticalAlign=middle;whiteSpace=wrap;rounded=0;" parent="1" vertex="1">
          <mxGeometry x="1447.5" y="-545" width="20" height="20" as="geometry" />
        </mxCell>
        <mxCell id="IWHVhnK3SDPOk-1DZyC3-55" value="&lt;font style=&quot;font-size: 8px;&quot;&gt;MEAS&lt;/font&gt;" style="text;html=1;strokeColor=none;fillColor=none;align=center;verticalAlign=middle;whiteSpace=wrap;rounded=0;" parent="1" vertex="1">
          <mxGeometry x="1477.5" y="-545" width="20" height="20" as="geometry" />
        </mxCell>
        <mxCell id="IWHVhnK3SDPOk-1DZyC3-56" value="&lt;font style=&quot;font-size: 7px;&quot;&gt;OUT&lt;/font&gt;" style="text;html=1;strokeColor=none;fillColor=none;align=center;verticalAlign=middle;whiteSpace=wrap;rounded=0;" parent="1" vertex="1">
          <mxGeometry x="1432.5" y="-520" width="20" height="10" as="geometry" />
        </mxCell>
        <mxCell id="IWHVhnK3SDPOk-1DZyC3-57" value="&lt;font style=&quot;font-size: 7px;&quot;&gt;IN&lt;/font&gt;" style="text;html=1;strokeColor=none;fillColor=none;align=center;verticalAlign=middle;whiteSpace=wrap;rounded=0;" parent="1" vertex="1">
          <mxGeometry x="1432.5" y="-475" width="20" height="10" as="geometry" />
        </mxCell>
        <mxCell id="IWHVhnK3SDPOk-1DZyC3-58" value="" style="rounded=0;whiteSpace=wrap;html=1;fillColor=#fff2cc;strokeColor=#d6b656;" parent="1" vertex="1">
          <mxGeometry x="1582.5" y="-545" width="170" height="120" as="geometry" />
        </mxCell>
        <mxCell id="IWHVhnK3SDPOk-1DZyC3-59" value="" style="rounded=0;whiteSpace=wrap;html=1;" parent="1" vertex="1">
          <mxGeometry x="1592.5" y="-525" width="90" height="20" as="geometry" />
        </mxCell>
        <mxCell id="IWHVhnK3SDPOk-1DZyC3-60" value="" style="rounded=0;whiteSpace=wrap;html=1;" parent="1" vertex="1">
          <mxGeometry x="1592.5" y="-480" width="90" height="20" as="geometry" />
        </mxCell>
        <mxCell id="IWHVhnK3SDPOk-1DZyC3-61" value="" style="ellipse;whiteSpace=wrap;html=1;aspect=fixed;" parent="1" vertex="1">
          <mxGeometry x="1702.5" y="-475" width="40" height="40" as="geometry" />
        </mxCell>
        <mxCell id="IWHVhnK3SDPOk-1DZyC3-62" value="&lt;font color=&quot;#c2c200&quot; style=&quot;font-size: 29px;&quot;&gt;2&lt;/font&gt;" style="text;html=1;strokeColor=none;fillColor=none;align=center;verticalAlign=middle;whiteSpace=wrap;rounded=0;" parent="1" vertex="1">
          <mxGeometry x="1692.5" y="-530" width="60" height="30" as="geometry" />
        </mxCell>
        <mxCell id="IWHVhnK3SDPOk-1DZyC3-63" value="" style="ellipse;whiteSpace=wrap;html=1;aspect=fixed;" parent="1" vertex="1">
          <mxGeometry x="1602.5" y="-520" width="10" height="10" as="geometry" />
        </mxCell>
        <mxCell id="IWHVhnK3SDPOk-1DZyC3-64" value="&lt;font style=&quot;font-size: 8px;&quot;&gt;SRC&lt;/font&gt;" style="text;html=1;strokeColor=none;fillColor=none;align=center;verticalAlign=middle;whiteSpace=wrap;rounded=0;" parent="1" vertex="1">
          <mxGeometry x="1597.5" y="-545" width="25" height="20" as="geometry" />
        </mxCell>
        <mxCell id="IWHVhnK3SDPOk-1DZyC3-65" value="" style="ellipse;whiteSpace=wrap;html=1;aspect=fixed;" parent="1" vertex="1">
          <mxGeometry x="1632.5" y="-520" width="10" height="10" as="geometry" />
        </mxCell>
        <mxCell id="IWHVhnK3SDPOk-1DZyC3-66" value="" style="ellipse;whiteSpace=wrap;html=1;aspect=fixed;" parent="1" vertex="1">
          <mxGeometry x="1662.5" y="-520" width="10" height="10" as="geometry" />
        </mxCell>
        <mxCell id="IWHVhnK3SDPOk-1DZyC3-67" value="" style="ellipse;whiteSpace=wrap;html=1;aspect=fixed;" parent="1" vertex="1">
          <mxGeometry x="1602.5" y="-475" width="10" height="10" as="geometry" />
        </mxCell>
        <mxCell id="IWHVhnK3SDPOk-1DZyC3-68" value="" style="ellipse;whiteSpace=wrap;html=1;aspect=fixed;" parent="1" vertex="1">
          <mxGeometry x="1632.5" y="-475" width="10" height="10" as="geometry" />
        </mxCell>
        <mxCell id="IWHVhnK3SDPOk-1DZyC3-69" value="" style="ellipse;whiteSpace=wrap;html=1;aspect=fixed;" parent="1" vertex="1">
          <mxGeometry x="1662.5" y="-475" width="10" height="10" as="geometry" />
        </mxCell>
        <mxCell id="IWHVhnK3SDPOk-1DZyC3-70" value="&lt;font style=&quot;font-size: 8px;&quot;&gt;REF&lt;/font&gt;" style="text;html=1;strokeColor=none;fillColor=none;align=center;verticalAlign=middle;whiteSpace=wrap;rounded=0;" parent="1" vertex="1">
          <mxGeometry x="1627.5" y="-545" width="20" height="20" as="geometry" />
        </mxCell>
        <mxCell id="IWHVhnK3SDPOk-1DZyC3-71" value="&lt;font style=&quot;font-size: 8px;&quot;&gt;MEAS&lt;/font&gt;" style="text;html=1;strokeColor=none;fillColor=none;align=center;verticalAlign=middle;whiteSpace=wrap;rounded=0;" parent="1" vertex="1">
          <mxGeometry x="1657.5" y="-545" width="20" height="20" as="geometry" />
        </mxCell>
        <mxCell id="IWHVhnK3SDPOk-1DZyC3-72" value="&lt;font style=&quot;font-size: 7px;&quot;&gt;OUT&lt;/font&gt;" style="text;html=1;strokeColor=none;fillColor=none;align=center;verticalAlign=middle;whiteSpace=wrap;rounded=0;" parent="1" vertex="1">
          <mxGeometry x="1612.5" y="-520" width="20" height="10" as="geometry" />
        </mxCell>
        <mxCell id="IWHVhnK3SDPOk-1DZyC3-73" value="&lt;font style=&quot;font-size: 7px;&quot;&gt;IN&lt;/font&gt;" style="text;html=1;strokeColor=none;fillColor=none;align=center;verticalAlign=middle;whiteSpace=wrap;rounded=0;" parent="1" vertex="1">
          <mxGeometry x="1612.5" y="-475" width="20" height="10" as="geometry" />
        </mxCell>
        <mxCell id="c6x9nXXjt7grRlhbPBqf-23" style="edgeStyle=orthogonalEdgeStyle;rounded=0;orthogonalLoop=1;jettySize=auto;html=1;entryX=0.5;entryY=1;entryDx=0;entryDy=0;fontFamily=Helvetica;fontSize=12;fontColor=default;strokeColor=#3333FF;" parent="1" source="IWHVhnK3SDPOk-1DZyC3-75" target="IWHVhnK3SDPOk-1DZyC3-84" edge="1">
          <mxGeometry relative="1" as="geometry" />
        </mxCell>
        <mxCell id="IWHVhnK3SDPOk-1DZyC3-75" value="&lt;font style=&quot;font-size: 16px;&quot;&gt;Directional Coupler&lt;/font&gt;" style="rounded=0;whiteSpace=wrap;html=1;strokeWidth=3;" parent="1" vertex="1">
          <mxGeometry x="990" y="114.99999999999989" width="220" height="70" as="geometry" />
        </mxCell>
        <mxCell id="IWHVhnK3SDPOk-1DZyC3-76" value="&lt;span style=&quot;font-size: 8px;&quot;&gt;IN&lt;/span&gt;" style="rounded=0;whiteSpace=wrap;html=1;" parent="1" vertex="1">
          <mxGeometry x="995" y="142.4999999999999" width="30" height="15" as="geometry" />
        </mxCell>
        <mxCell id="IWHVhnK3SDPOk-1DZyC3-77" value="&lt;font style=&quot;font-size: 8px;&quot;&gt;OUT&lt;/font&gt;" style="rounded=0;whiteSpace=wrap;html=1;" parent="1" vertex="1">
          <mxGeometry x="1175" y="142.4999999999999" width="30" height="15" as="geometry" />
        </mxCell>
        <mxCell id="IWHVhnK3SDPOk-1DZyC3-78" value="&lt;font style=&quot;font-size: 8px;&quot;&gt;COUP&lt;/font&gt;" style="rounded=0;whiteSpace=wrap;html=1;" parent="1" vertex="1">
          <mxGeometry x="1030" y="119.99999999999989" width="30" height="15" as="geometry" />
        </mxCell>
        <mxCell id="c6x9nXXjt7grRlhbPBqf-91" value="" style="edgeStyle=orthogonalEdgeStyle;rounded=0;orthogonalLoop=1;jettySize=auto;html=1;fontFamily=Helvetica;fontSize=12;fontColor=default;" parent="1" source="IWHVhnK3SDPOk-1DZyC3-79" target="c6x9nXXjt7grRlhbPBqf-90" edge="1">
          <mxGeometry relative="1" as="geometry" />
        </mxCell>
        <mxCell id="IWHVhnK3SDPOk-1DZyC3-79" value="&lt;font style=&quot;font-size: 8px;&quot;&gt;COUP&lt;/font&gt;" style="rounded=0;whiteSpace=wrap;html=1;" parent="1" vertex="1">
          <mxGeometry x="1140" y="119.99999999999989" width="30" height="15" as="geometry" />
        </mxCell>
        <mxCell id="IWHVhnK3SDPOk-1DZyC3-80" value="PA OUT" style="text;html=1;strokeColor=none;fillColor=none;align=center;verticalAlign=middle;whiteSpace=wrap;rounded=0;" parent="1" vertex="1">
          <mxGeometry x="1070" y="154.9999999999999" width="60" height="30" as="geometry" />
        </mxCell>
        <mxCell id="IWHVhnK3SDPOk-1DZyC3-84" value="" style="rounded=0;whiteSpace=wrap;html=1;fillColor=#fff2cc;strokeColor=#d6b656;" parent="1" vertex="1">
          <mxGeometry x="1562.5" y="-203.46000000000004" width="70" height="70" as="geometry" />
        </mxCell>
        <mxCell id="IWHVhnK3SDPOk-1DZyC3-85" value="" style="ellipse;whiteSpace=wrap;html=1;aspect=fixed;" parent="1" vertex="1">
          <mxGeometry x="1582.5" y="-178.46000000000004" width="30" height="30" as="geometry" />
        </mxCell>
        <mxCell id="IWHVhnK3SDPOk-1DZyC3-86" value="INPUT" style="text;html=1;strokeColor=none;fillColor=none;align=center;verticalAlign=middle;whiteSpace=wrap;rounded=0;" parent="1" vertex="1">
          <mxGeometry x="1567.5" y="-203.46000000000004" width="60" height="30" as="geometry" />
        </mxCell>
        <mxCell id="IWHVhnK3SDPOk-1DZyC3-88" value="&lt;font style=&quot;font-size: 8px;&quot;&gt;IN&lt;/font&gt;" style="rounded=0;whiteSpace=wrap;html=1;" parent="1" vertex="1">
          <mxGeometry x="775" y="-740" width="20" height="10" as="geometry" />
        </mxCell>
        <mxCell id="IWHVhnK3SDPOk-1DZyC3-89" value="&lt;font style=&quot;font-size: 8px;&quot;&gt;IN&lt;/font&gt;" style="rounded=0;whiteSpace=wrap;html=1;" parent="1" vertex="1">
          <mxGeometry x="775" y="-720" width="20" height="10" as="geometry" />
        </mxCell>
        <mxCell id="IWHVhnK3SDPOk-1DZyC3-93" value="" style="endArrow=none;html=1;rounded=0;entryX=0.836;entryY=0.084;entryDx=0;entryDy=0;entryPerimeter=0;exitX=1;exitY=0.5;exitDx=0;exitDy=0;strokeColor=#3333FF;" parent="1" source="TIZcJ4Cyvrn126za0Mi8-4" target="IWHVhnK3SDPOk-1DZyC3-92" edge="1">
          <mxGeometry width="50" height="50" relative="1" as="geometry">
            <mxPoint x="895" y="-720" as="sourcePoint" />
            <mxPoint x="1064" y="-858" as="targetPoint" />
            <Array as="points" />
          </mxGeometry>
        </mxCell>
        <mxCell id="IWHVhnK3SDPOk-1DZyC3-92" value="&lt;font style=&quot;font-size: 8px;&quot;&gt;OUT&lt;/font&gt;" style="rounded=0;whiteSpace=wrap;html=1;" parent="1" vertex="1">
          <mxGeometry x="875" y="-730" width="20" height="10" as="geometry" />
        </mxCell>
        <mxCell id="IWHVhnK3SDPOk-1DZyC3-94" style="edgeStyle=orthogonalEdgeStyle;rounded=0;orthogonalLoop=1;jettySize=auto;html=1;exitX=0.5;exitY=1;exitDx=0;exitDy=0;" parent="1" source="TIZcJ4Cyvrn126za0Mi8-4" target="TIZcJ4Cyvrn126za0Mi8-4" edge="1">
          <mxGeometry relative="1" as="geometry" />
        </mxCell>
        <mxCell id="IWHVhnK3SDPOk-1DZyC3-101" value="&lt;font style=&quot;font-size: 11px;&quot;&gt;Power Splitter&lt;/font&gt;" style="rounded=0;whiteSpace=wrap;html=1;direction=east;strokeWidth=3;" parent="1" vertex="1">
          <mxGeometry x="1087.5" y="1.5399999999999636" width="120" height="50" as="geometry" />
        </mxCell>
        <mxCell id="IWHVhnK3SDPOk-1DZyC3-102" value="&lt;font style=&quot;font-size: 8px;&quot;&gt;1&lt;/font&gt;" style="rounded=0;whiteSpace=wrap;html=1;direction=east;" parent="1" vertex="1">
          <mxGeometry x="1187.5" y="11.539999999999964" width="20" height="10" as="geometry" />
        </mxCell>
        <mxCell id="IWHVhnK3SDPOk-1DZyC3-103" value="&lt;font style=&quot;font-size: 8px;&quot;&gt;2&lt;/font&gt;" style="rounded=0;whiteSpace=wrap;html=1;direction=east;" parent="1" vertex="1">
          <mxGeometry x="1187.5" y="31.539999999999964" width="20" height="10" as="geometry" />
        </mxCell>
        <mxCell id="c6x9nXXjt7grRlhbPBqf-2" style="edgeStyle=orthogonalEdgeStyle;rounded=0;orthogonalLoop=1;jettySize=auto;html=1;entryX=0.5;entryY=0;entryDx=0;entryDy=0;fontFamily=Helvetica;fontSize=12;fontColor=default;" parent="1" source="IWHVhnK3SDPOk-1DZyC3-105" target="IWHVhnK3SDPOk-1DZyC3-78" edge="1">
          <mxGeometry relative="1" as="geometry" />
        </mxCell>
        <mxCell id="IWHVhnK3SDPOk-1DZyC3-105" value="&lt;font style=&quot;font-size: 8px;&quot;&gt;S&lt;/font&gt;" style="rounded=0;whiteSpace=wrap;html=1;direction=east;" parent="1" vertex="1">
          <mxGeometry x="1087.5" y="21.539999999999964" width="20" height="10" as="geometry" />
        </mxCell>
        <mxCell id="IWHVhnK3SDPOk-1DZyC3-106" style="edgeStyle=orthogonalEdgeStyle;rounded=0;orthogonalLoop=1;jettySize=auto;html=1;exitX=0.5;exitY=1;exitDx=0;exitDy=0;" parent="1" source="IWHVhnK3SDPOk-1DZyC3-101" target="IWHVhnK3SDPOk-1DZyC3-101" edge="1">
          <mxGeometry relative="1" as="geometry" />
        </mxCell>
        <mxCell id="IWHVhnK3SDPOk-1DZyC3-108" value="Agilent N1912A &lt;br&gt;Power Sensor" style="rounded=0;whiteSpace=wrap;html=1;strokeWidth=3;" parent="1" vertex="1">
          <mxGeometry x="1693" y="6.540000000000077" width="175" height="60" as="geometry" />
        </mxCell>
        <mxCell id="IWHVhnK3SDPOk-1DZyC3-109" value="&lt;font style=&quot;font-size: 16px;&quot;&gt;Agilent N1912A &lt;br&gt;Power Meter&lt;br&gt;&lt;br&gt;&lt;/font&gt;" style="rounded=0;whiteSpace=wrap;html=1;strokeWidth=3;" parent="1" vertex="1">
          <mxGeometry x="1797.5" y="-123.45999999999998" width="240" height="100" as="geometry" />
        </mxCell>
        <mxCell id="IWHVhnK3SDPOk-1DZyC3-111" value="A" style="ellipse;whiteSpace=wrap;html=1;aspect=fixed;" parent="1" vertex="1">
          <mxGeometry x="1932.5" y="-63.460000000000036" width="30" height="30" as="geometry" />
        </mxCell>
        <mxCell id="IWHVhnK3SDPOk-1DZyC3-112" value="B" style="ellipse;whiteSpace=wrap;html=1;aspect=fixed;" parent="1" vertex="1">
          <mxGeometry x="1977.5" y="-63.460000000000036" width="30" height="30" as="geometry" />
        </mxCell>
        <mxCell id="IWHVhnK3SDPOk-1DZyC3-113" value="&lt;font style=&quot;font-size: 8px;&quot;&gt;IN&lt;/font&gt;" style="rounded=0;whiteSpace=wrap;html=1;" parent="1" vertex="1">
          <mxGeometry x="1693" y="26.540000000000077" width="25" height="20" as="geometry" />
        </mxCell>
        <mxCell id="c6x9nXXjt7grRlhbPBqf-21" style="edgeStyle=orthogonalEdgeStyle;rounded=0;orthogonalLoop=1;jettySize=auto;html=1;entryX=0.5;entryY=1;entryDx=0;entryDy=0;fontFamily=Helvetica;fontSize=12;fontColor=default;" parent="1" source="IWHVhnK3SDPOk-1DZyC3-114" target="IWHVhnK3SDPOk-1DZyC3-111" edge="1">
          <mxGeometry relative="1" as="geometry" />
        </mxCell>
        <mxCell id="IWHVhnK3SDPOk-1DZyC3-114" value="&lt;font style=&quot;font-size: 8px;&quot;&gt;OUT&lt;/font&gt;" style="rounded=0;whiteSpace=wrap;html=1;" parent="1" vertex="1">
          <mxGeometry x="1843" y="26.540000000000077" width="25" height="20" as="geometry" />
        </mxCell>
        <mxCell id="IWHVhnK3SDPOk-1DZyC3-115" value="" style="endArrow=classic;html=1;rounded=0;strokeColor=#000000;exitX=1;exitY=0.5;exitDx=0;exitDy=0;entryX=0;entryY=0.5;entryDx=0;entryDy=0;" parent="1" source="IWHVhnK3SDPOk-1DZyC3-103" target="IWHVhnK3SDPOk-1DZyC3-113" edge="1">
          <mxGeometry width="50" height="50" relative="1" as="geometry">
            <mxPoint x="1350" y="17" as="sourcePoint" />
            <mxPoint x="1600" y="135" as="targetPoint" />
            <Array as="points">
              <mxPoint x="1330" y="37" />
            </Array>
          </mxGeometry>
        </mxCell>
        <mxCell id="IWHVhnK3SDPOk-1DZyC3-117" value="" style="endArrow=classic;html=1;rounded=0;entryX=0.5;entryY=1;entryDx=0;entryDy=0;exitX=1;exitY=0.5;exitDx=0;exitDy=0;" parent="1" source="IWHVhnK3SDPOk-1DZyC3-102" target="IWHVhnK3SDPOk-1DZyC3-69" edge="1">
          <mxGeometry width="50" height="50" relative="1" as="geometry">
            <mxPoint x="1350" y="35" as="sourcePoint" />
            <mxPoint x="2020" y="-5" as="targetPoint" />
            <Array as="points">
              <mxPoint x="1330" y="17" />
              <mxPoint x="1668" y="15" />
            </Array>
          </mxGeometry>
        </mxCell>
        <mxCell id="IWHVhnK3SDPOk-1DZyC3-211" style="edgeStyle=orthogonalEdgeStyle;rounded=0;orthogonalLoop=1;jettySize=auto;html=1;fontFamily=Helvetica;fontSize=12;fontColor=default;entryX=0.25;entryY=0;entryDx=0;entryDy=0;strokeColor=#FF0000;" parent="1" source="IWHVhnK3SDPOk-1DZyC3-118" target="IWHVhnK3SDPOk-1DZyC3-189" edge="1">
          <mxGeometry relative="1" as="geometry">
            <mxPoint x="1015" y="-682.5" as="targetPoint" />
          </mxGeometry>
        </mxCell>
        <mxCell id="IWHVhnK3SDPOk-1DZyC3-118" value="" style="ellipse;whiteSpace=wrap;html=1;aspect=fixed;fillColor=#f8cecc;strokeColor=#b85450;" parent="1" vertex="1">
          <mxGeometry x="1005" y="-767.5" width="20" height="20" as="geometry" />
        </mxCell>
        <mxCell id="IWHVhnK3SDPOk-1DZyC3-212" style="edgeStyle=orthogonalEdgeStyle;rounded=0;orthogonalLoop=1;jettySize=auto;html=1;entryX=0.75;entryY=0;entryDx=0;entryDy=0;fontFamily=Helvetica;fontSize=12;fontColor=default;" parent="1" source="IWHVhnK3SDPOk-1DZyC3-119" target="IWHVhnK3SDPOk-1DZyC3-189" edge="1">
          <mxGeometry relative="1" as="geometry" />
        </mxCell>
        <mxCell id="IWHVhnK3SDPOk-1DZyC3-119" value="" style="ellipse;whiteSpace=wrap;html=1;aspect=fixed;fillColor=#000000;" parent="1" vertex="1">
          <mxGeometry x="1035" y="-767.5" width="20" height="20" as="geometry" />
        </mxCell>
        <mxCell id="IWHVhnK3SDPOk-1DZyC3-120" value="" style="ellipse;whiteSpace=wrap;html=1;aspect=fixed;fillColor=#d5e8d4;strokeColor=#82b366;" parent="1" vertex="1">
          <mxGeometry x="1065" y="-767.5" width="20" height="20" as="geometry" />
        </mxCell>
        <mxCell id="IWHVhnK3SDPOk-1DZyC3-121" value="" style="ellipse;whiteSpace=wrap;html=1;aspect=fixed;fillColor=#f8cecc;strokeColor=#b85450;" parent="1" vertex="1">
          <mxGeometry x="1095" y="-767.5" width="20" height="20" as="geometry" />
        </mxCell>
        <mxCell id="IWHVhnK3SDPOk-1DZyC3-124" value="" style="ellipse;whiteSpace=wrap;html=1;aspect=fixed;fillColor=#000000;" parent="1" vertex="1">
          <mxGeometry x="1125" y="-767.5" width="20" height="20" as="geometry" />
        </mxCell>
        <mxCell id="IWHVhnK3SDPOk-1DZyC3-125" value="" style="ellipse;whiteSpace=wrap;html=1;aspect=fixed;fillColor=#f8cecc;strokeColor=#b85450;" parent="1" vertex="1">
          <mxGeometry x="1155" y="-767.5" width="20" height="20" as="geometry" />
        </mxCell>
        <mxCell id="IWHVhnK3SDPOk-1DZyC3-127" value="" style="ellipse;whiteSpace=wrap;html=1;aspect=fixed;" parent="1" vertex="1">
          <mxGeometry x="1877.5" y="-240" width="30" height="30" as="geometry" />
        </mxCell>
        <mxCell id="IWHVhnK3SDPOk-1DZyC3-128" value="&lt;font style=&quot;font-size: 8px;&quot;&gt;INPUT&lt;/font&gt;" style="text;html=1;strokeColor=none;fillColor=none;align=center;verticalAlign=middle;whiteSpace=wrap;rounded=0;" parent="1" vertex="1">
          <mxGeometry x="1862.5" y="-265" width="60" height="30" as="geometry" />
        </mxCell>
        <mxCell id="IWHVhnK3SDPOk-1DZyC3-129" value="&lt;font style=&quot;font-size: 16px;&quot;&gt;Directional Coupler&lt;/font&gt;" style="rounded=0;whiteSpace=wrap;html=1;strokeWidth=3;" parent="1" vertex="1">
          <mxGeometry x="1012.5" y="-88.45999999999998" width="220" height="70" as="geometry" />
        </mxCell>
        <mxCell id="IWHVhnK3SDPOk-1DZyC3-130" value="&lt;span style=&quot;font-size: 8px;&quot;&gt;IN&lt;/span&gt;" style="rounded=0;whiteSpace=wrap;html=1;" parent="1" vertex="1">
          <mxGeometry x="1017.5" y="-60.960000000000036" width="30" height="15" as="geometry" />
        </mxCell>
        <mxCell id="4JG2JYZn_Jv14RG5rezT-28" style="edgeStyle=orthogonalEdgeStyle;rounded=0;orthogonalLoop=1;jettySize=auto;html=1;entryX=0;entryY=0.5;entryDx=0;entryDy=0;fontFamily=Helvetica;fontSize=12;fontColor=default;" parent="1" source="IWHVhnK3SDPOk-1DZyC3-131" target="IWHVhnK3SDPOk-1DZyC3-136" edge="1">
          <mxGeometry relative="1" as="geometry" />
        </mxCell>
        <mxCell id="IWHVhnK3SDPOk-1DZyC3-131" value="&lt;font style=&quot;font-size: 8px;&quot;&gt;OUT&lt;/font&gt;" style="rounded=0;whiteSpace=wrap;html=1;" parent="1" vertex="1">
          <mxGeometry x="1197.5" y="-60.960000000000036" width="30" height="15" as="geometry" />
        </mxCell>
        <mxCell id="IWHVhnK3SDPOk-1DZyC3-132" value="&lt;font style=&quot;font-size: 8px;&quot;&gt;COUP&lt;/font&gt;" style="rounded=0;whiteSpace=wrap;html=1;" parent="1" vertex="1">
          <mxGeometry x="1052.5" y="-83.45999999999998" width="30" height="15" as="geometry" />
        </mxCell>
        <mxCell id="IWHVhnK3SDPOk-1DZyC3-133" value="&lt;font style=&quot;font-size: 8px;&quot;&gt;COUP&lt;/font&gt;" style="rounded=0;whiteSpace=wrap;html=1;" parent="1" vertex="1">
          <mxGeometry x="1162.5" y="-83.45999999999998" width="30" height="15" as="geometry" />
        </mxCell>
        <mxCell id="IWHVhnK3SDPOk-1DZyC3-134" value="PA IN COUP" style="text;html=1;strokeColor=none;fillColor=none;align=center;verticalAlign=middle;whiteSpace=wrap;rounded=0;" parent="1" vertex="1">
          <mxGeometry x="1082.5" y="-48.460000000000036" width="80" height="30" as="geometry" />
        </mxCell>
        <mxCell id="IWHVhnK3SDPOk-1DZyC3-136" value="&lt;b&gt;TO DUT&lt;/b&gt;" style="text;html=1;strokeColor=none;fillColor=none;align=center;verticalAlign=middle;whiteSpace=wrap;rounded=0;" parent="1" vertex="1">
          <mxGeometry x="1252.5" y="-68.46000000000004" width="60" height="30" as="geometry" />
        </mxCell>
        <mxCell id="IWHVhnK3SDPOk-1DZyC3-137" value="ATTN" style="shape=cylinder3;whiteSpace=wrap;html=1;boundedLbl=1;backgroundOutline=1;size=5.816327999799455;fillColor=#78727A;strokeColor=#000000;strokeWidth=2;" parent="1" vertex="1">
          <mxGeometry x="1352.5" y="-385" width="40" height="77.5" as="geometry" />
        </mxCell>
        <mxCell id="IWHVhnK3SDPOk-1DZyC3-139" value="" style="endArrow=classic;html=1;rounded=0;exitX=0.5;exitY=0;exitDx=0;exitDy=0;exitPerimeter=0;entryX=0.5;entryY=1;entryDx=0;entryDy=0;strokeColor=#3333FF;" parent="1" source="IWHVhnK3SDPOk-1DZyC3-137" target="IWHVhnK3SDPOk-1DZyC3-37" edge="1">
          <mxGeometry width="50" height="50" relative="1" as="geometry">
            <mxPoint x="1910" y="185" as="sourcePoint" />
            <mxPoint x="1960" y="135" as="targetPoint" />
            <Array as="points">
              <mxPoint x="1373" y="-405" />
              <mxPoint x="1308" y="-405" />
            </Array>
          </mxGeometry>
        </mxCell>
        <mxCell id="IWHVhnK3SDPOk-1DZyC3-140" value="&lt;font style=&quot;font-size: 11px;&quot;&gt;Power Splitter&lt;/font&gt;" style="rounded=0;whiteSpace=wrap;html=1;direction=east;strokeWidth=3;" parent="1" vertex="1">
          <mxGeometry x="1112.5" y="-185" width="120" height="50" as="geometry" />
        </mxCell>
        <mxCell id="4JG2JYZn_Jv14RG5rezT-24" style="edgeStyle=orthogonalEdgeStyle;rounded=0;orthogonalLoop=1;jettySize=auto;html=1;entryX=0.5;entryY=1;entryDx=0;entryDy=0;entryPerimeter=0;fontFamily=Helvetica;fontSize=12;fontColor=default;strokeColor=#FF9933;" parent="1" source="IWHVhnK3SDPOk-1DZyC3-141" target="IWHVhnK3SDPOk-1DZyC3-155" edge="1">
          <mxGeometry relative="1" as="geometry" />
        </mxCell>
        <mxCell id="IWHVhnK3SDPOk-1DZyC3-141" value="&lt;font style=&quot;font-size: 8px;&quot;&gt;1&lt;/font&gt;" style="rounded=0;whiteSpace=wrap;html=1;direction=east;" parent="1" vertex="1">
          <mxGeometry x="1212.5" y="-175" width="20" height="10" as="geometry" />
        </mxCell>
        <mxCell id="IWHVhnK3SDPOk-1DZyC3-142" value="&lt;font style=&quot;font-size: 8px;&quot;&gt;2&lt;/font&gt;" style="rounded=0;whiteSpace=wrap;html=1;direction=east;" parent="1" vertex="1">
          <mxGeometry x="1212.5" y="-154.99999999999994" width="20" height="10" as="geometry" />
        </mxCell>
        <mxCell id="IWHVhnK3SDPOk-1DZyC3-144" value="&lt;font style=&quot;font-size: 8px;&quot;&gt;S&lt;/font&gt;" style="rounded=0;whiteSpace=wrap;html=1;direction=east;" parent="1" vertex="1">
          <mxGeometry x="1112.5" y="-165" width="20" height="10" as="geometry" />
        </mxCell>
        <mxCell id="IWHVhnK3SDPOk-1DZyC3-145" style="edgeStyle=orthogonalEdgeStyle;rounded=0;orthogonalLoop=1;jettySize=auto;html=1;exitX=0.5;exitY=1;exitDx=0;exitDy=0;" parent="1" source="IWHVhnK3SDPOk-1DZyC3-140" target="IWHVhnK3SDPOk-1DZyC3-140" edge="1">
          <mxGeometry relative="1" as="geometry" />
        </mxCell>
        <mxCell id="IWHVhnK3SDPOk-1DZyC3-153" value="" style="endArrow=classic;html=1;rounded=0;exitX=1;exitY=0.5;exitDx=0;exitDy=0;entryX=0;entryY=0.5;entryDx=0;entryDy=0;" parent="1" source="IWHVhnK3SDPOk-1DZyC3-142" target="c6x9nXXjt7grRlhbPBqf-18" edge="1">
          <mxGeometry width="50" height="50" relative="1" as="geometry">
            <mxPoint x="2160" y="245" as="sourcePoint" />
            <mxPoint x="1510" y="405" as="targetPoint" />
            <Array as="points">
              <mxPoint x="1310" y="-150" />
              <mxPoint x="1310" y="155" />
            </Array>
          </mxGeometry>
        </mxCell>
        <mxCell id="IWHVhnK3SDPOk-1DZyC3-158" value="" style="edgeStyle=orthogonalEdgeStyle;rounded=0;orthogonalLoop=1;jettySize=auto;html=1;" parent="1" source="IWHVhnK3SDPOk-1DZyC3-155" target="IWHVhnK3SDPOk-1DZyC3-156" edge="1">
          <mxGeometry relative="1" as="geometry" />
        </mxCell>
        <mxCell id="IWHVhnK3SDPOk-1DZyC3-155" value="ATTN" style="shape=cylinder3;whiteSpace=wrap;html=1;boundedLbl=1;backgroundOutline=1;size=5.816327999799455;fillColor=#78727A;strokeColor=#000000;strokeWidth=2;" parent="1" vertex="1">
          <mxGeometry x="1257.5" y="-297.5" width="40" height="77.5" as="geometry" />
        </mxCell>
        <mxCell id="4JG2JYZn_Jv14RG5rezT-23" style="edgeStyle=orthogonalEdgeStyle;rounded=0;orthogonalLoop=1;jettySize=auto;html=1;entryX=0.5;entryY=1;entryDx=0;entryDy=0;fontFamily=Helvetica;fontSize=12;fontColor=default;strokeColor=#FF9933;" parent="1" source="IWHVhnK3SDPOk-1DZyC3-156" target="IWHVhnK3SDPOk-1DZyC3-28" edge="1">
          <mxGeometry relative="1" as="geometry" />
        </mxCell>
        <mxCell id="IWHVhnK3SDPOk-1DZyC3-156" value="ATTN" style="shape=cylinder3;whiteSpace=wrap;html=1;boundedLbl=1;backgroundOutline=1;size=5.816327999799455;fillColor=#78727A;strokeColor=#000000;strokeWidth=2;" parent="1" vertex="1">
          <mxGeometry x="1257.5" y="-367.5" width="40" height="50" as="geometry" />
        </mxCell>
        <mxCell id="IWHVhnK3SDPOk-1DZyC3-160" value="DPD ATTN" style="rounded=0;whiteSpace=wrap;html=1;fillColor=#878787;strokeWidth=3;" parent="1" vertex="1">
          <mxGeometry x="445" y="426.5400000000001" width="180" height="80" as="geometry" />
        </mxCell>
        <mxCell id="IWHVhnK3SDPOk-1DZyC3-165" value="Directional Coupler&lt;br&gt;500-8000" style="rounded=0;whiteSpace=wrap;html=1;fillColor=#CCCCCC;strokeWidth=3;" parent="1" vertex="1">
          <mxGeometry x="695" y="451.5400000000001" width="180" height="30" as="geometry" />
        </mxCell>
        <mxCell id="IWHVhnK3SDPOk-1DZyC3-168" value="IN" style="rounded=0;whiteSpace=wrap;html=1;fillColor=#878787;" parent="1" vertex="1">
          <mxGeometry x="445" y="451.5400000000001" width="30" height="30" as="geometry" />
        </mxCell>
        <mxCell id="IWHVhnK3SDPOk-1DZyC3-170" value="" style="edgeStyle=orthogonalEdgeStyle;rounded=0;orthogonalLoop=1;jettySize=auto;html=1;fontFamily=Helvetica;fontSize=12;fontColor=default;" parent="1" source="IWHVhnK3SDPOk-1DZyC3-169" target="IWHVhnK3SDPOk-1DZyC3-165" edge="1">
          <mxGeometry relative="1" as="geometry" />
        </mxCell>
        <mxCell id="IWHVhnK3SDPOk-1DZyC3-169" value="OUT" style="rounded=0;whiteSpace=wrap;html=1;fillColor=#878787;" parent="1" vertex="1">
          <mxGeometry x="595" y="451.5400000000001" width="30" height="30" as="geometry" />
        </mxCell>
        <mxCell id="IWHVhnK3SDPOk-1DZyC3-171" value="&lt;font style=&quot;font-size: 6px;&quot;&gt;IN&lt;/font&gt;" style="rounded=0;whiteSpace=wrap;html=1;fillColor=#CCCCCC;" parent="1" vertex="1">
          <mxGeometry x="695" y="459.0400000000001" width="20" height="17.5" as="geometry" />
        </mxCell>
        <mxCell id="IWHVhnK3SDPOk-1DZyC3-176" value="" style="edgeStyle=orthogonalEdgeStyle;rounded=0;orthogonalLoop=1;jettySize=auto;html=1;fontFamily=Helvetica;fontSize=12;fontColor=default;exitX=1;exitY=0.5;exitDx=0;exitDy=0;" parent="1" source="IWHVhnK3SDPOk-1DZyC3-172" target="IWHVhnK3SDPOk-1DZyC3-175" edge="1">
          <mxGeometry relative="1" as="geometry" />
        </mxCell>
        <mxCell id="IWHVhnK3SDPOk-1DZyC3-172" value="&lt;font style=&quot;font-size: 6px;&quot;&gt;OUT&lt;/font&gt;" style="rounded=0;whiteSpace=wrap;html=1;fillColor=#CCCCCC;" parent="1" vertex="1">
          <mxGeometry x="855" y="459.0400000000001" width="20" height="17.5" as="geometry" />
        </mxCell>
        <mxCell id="IWHVhnK3SDPOk-1DZyC3-173" value="&lt;font style=&quot;font-size: 6px;&quot;&gt;COUP&lt;/font&gt;" style="rounded=0;whiteSpace=wrap;html=1;fillColor=#CCCCCC;" parent="1" vertex="1">
          <mxGeometry x="725" y="471.5400000000001" width="20" height="10" as="geometry" />
        </mxCell>
        <mxCell id="IWHVhnK3SDPOk-1DZyC3-217" style="edgeStyle=orthogonalEdgeStyle;rounded=0;orthogonalLoop=1;jettySize=auto;html=1;entryX=0;entryY=0.5;entryDx=0;entryDy=0;fontFamily=Helvetica;fontSize=12;fontColor=default;" parent="1" source="IWHVhnK3SDPOk-1DZyC3-174" target="IWHVhnK3SDPOk-1DZyC3-215" edge="1">
          <mxGeometry relative="1" as="geometry">
            <Array as="points">
              <mxPoint x="835" y="576.5400000000001" />
            </Array>
          </mxGeometry>
        </mxCell>
        <mxCell id="IWHVhnK3SDPOk-1DZyC3-174" value="&lt;font style=&quot;font-size: 6px;&quot;&gt;COUP&lt;/font&gt;" style="rounded=0;whiteSpace=wrap;html=1;fillColor=#CCCCCC;" parent="1" vertex="1">
          <mxGeometry x="825" y="471.5400000000001" width="20" height="10" as="geometry" />
        </mxCell>
        <mxCell id="IWHVhnK3SDPOk-1DZyC3-175" value="Splitter" style="rounded=0;whiteSpace=wrap;html=1;strokeColor=default;fontFamily=Helvetica;fontSize=12;fontColor=default;fillColor=#CCCCCC;strokeWidth=3;" parent="1" vertex="1">
          <mxGeometry x="960" y="452.7900000000001" width="70" height="30" as="geometry" />
        </mxCell>
        <mxCell id="IWHVhnK3SDPOk-1DZyC3-177" value="&lt;font style=&quot;font-size: 16px;&quot;&gt;Giga-tronics 8652A&lt;br&gt;&lt;br&gt;&lt;/font&gt;" style="rounded=0;whiteSpace=wrap;html=1;strokeWidth=3;" parent="1" vertex="1">
          <mxGeometry x="1080" y="541.5400000000001" width="240" height="100" as="geometry" />
        </mxCell>
        <mxCell id="IWHVhnK3SDPOk-1DZyC3-178" value="A" style="ellipse;whiteSpace=wrap;html=1;aspect=fixed;" parent="1" vertex="1">
          <mxGeometry x="1090" y="561.5400000000001" width="30" height="30" as="geometry" />
        </mxCell>
        <mxCell id="IWHVhnK3SDPOk-1DZyC3-179" value="B" style="ellipse;whiteSpace=wrap;html=1;aspect=fixed;" parent="1" vertex="1">
          <mxGeometry x="1090" y="601.5400000000001" width="30" height="30" as="geometry" />
        </mxCell>
        <mxCell id="c6x9nXXjt7grRlhbPBqf-16" style="edgeStyle=orthogonalEdgeStyle;rounded=0;orthogonalLoop=1;jettySize=auto;html=1;fontFamily=Helvetica;fontSize=12;fontColor=default;" parent="1" source="IWHVhnK3SDPOk-1DZyC3-163" target="IWHVhnK3SDPOk-1DZyC3-168" edge="1">
          <mxGeometry relative="1" as="geometry" />
        </mxCell>
        <mxCell id="IWHVhnK3SDPOk-1DZyC3-163" value="&lt;b&gt;FROM DUT&lt;/b&gt;" style="text;html=1;strokeColor=none;fillColor=none;align=center;verticalAlign=middle;whiteSpace=wrap;rounded=0;" parent="1" vertex="1">
          <mxGeometry x="295" y="451.5400000000001" width="70" height="30" as="geometry" />
        </mxCell>
        <mxCell id="IWHVhnK3SDPOk-1DZyC3-182" value="" style="endArrow=classic;html=1;rounded=0;fontFamily=Helvetica;fontSize=12;fontColor=default;exitX=1;exitY=0.5;exitDx=0;exitDy=0;strokeColor=#3333FF;" parent="1" source="IWHVhnK3SDPOk-1DZyC3-175" edge="1">
          <mxGeometry width="50" height="50" relative="1" as="geometry">
            <mxPoint x="1055" y="486.5400000000001" as="sourcePoint" />
            <mxPoint x="1105" y="467.5400000000001" as="targetPoint" />
          </mxGeometry>
        </mxCell>
        <mxCell id="IWHVhnK3SDPOk-1DZyC3-183" value="" style="endArrow=classic;html=1;rounded=0;fontFamily=Helvetica;fontSize=12;fontColor=default;exitX=0.5;exitY=0;exitDx=0;exitDy=0;strokeColor=#FF8000;" parent="1" source="IWHVhnK3SDPOk-1DZyC3-175" edge="1">
          <mxGeometry width="50" height="50" relative="1" as="geometry">
            <mxPoint x="995" y="456.5400000000001" as="sourcePoint" />
            <mxPoint x="1030" y="420" as="targetPoint" />
            <Array as="points">
              <mxPoint x="995" y="420" />
            </Array>
          </mxGeometry>
        </mxCell>
        <mxCell id="4MABuNcmlsiJ_IKFp13X-10" style="edgeStyle=orthogonalEdgeStyle;rounded=0;orthogonalLoop=1;jettySize=auto;html=1;entryX=1;entryY=0.5;entryDx=0;entryDy=0;strokeColor=#00FFFF;" parent="1" source="IWHVhnK3SDPOk-1DZyC3-184" target="IWHVhnK3SDPOk-1DZyC3-127" edge="1">
          <mxGeometry relative="1" as="geometry" />
        </mxCell>
        <mxCell id="IWHVhnK3SDPOk-1DZyC3-184" value="&lt;b&gt;FROM DUT&lt;/b&gt;" style="text;html=1;strokeColor=none;fillColor=none;align=center;verticalAlign=middle;whiteSpace=wrap;rounded=0;fontSize=12;fontFamily=Helvetica;fontColor=default;" parent="1" vertex="1">
          <mxGeometry x="1977.5" y="-240" width="72.5" height="30" as="geometry" />
        </mxCell>
        <mxCell id="IWHVhnK3SDPOk-1DZyC3-186" value="&lt;b&gt;TO DUT&lt;/b&gt;" style="text;html=1;strokeColor=none;fillColor=none;align=center;verticalAlign=middle;whiteSpace=wrap;rounded=0;fontSize=12;fontFamily=Helvetica;fontColor=default;" parent="1" vertex="1">
          <mxGeometry x="1000" y="-672.5" width="60" height="30" as="geometry" />
        </mxCell>
        <mxCell id="IWHVhnK3SDPOk-1DZyC3-189" value="&lt;font color=&quot;#ff0000&quot; style=&quot;font-size: 9px;&quot;&gt;&lt;b&gt;5.415V DC&lt;/b&gt;&lt;/font&gt;" style="text;html=1;strokeColor=none;fillColor=none;align=center;verticalAlign=middle;whiteSpace=wrap;rounded=0;fontSize=12;fontFamily=Helvetica;fontColor=default;" parent="1" vertex="1">
          <mxGeometry x="1000" y="-672.5" width="60" height="10" as="geometry" />
        </mxCell>
        <mxCell id="IWHVhnK3SDPOk-1DZyC3-190" value="" style="endArrow=classic;html=1;rounded=0;fontFamily=Helvetica;fontSize=12;fontColor=default;" parent="1" target="IWHVhnK3SDPOk-1DZyC3-191" edge="1">
          <mxGeometry width="50" height="50" relative="1" as="geometry">
            <mxPoint x="950" y="60" as="sourcePoint" />
            <mxPoint x="950" y="20" as="targetPoint" />
            <Array as="points">
              <mxPoint x="950" />
              <mxPoint x="795" />
            </Array>
          </mxGeometry>
        </mxCell>
        <mxCell id="IWHVhnK3SDPOk-1DZyC3-191" value="&lt;b&gt;TO DUT&lt;/b&gt;" style="text;html=1;strokeColor=none;fillColor=none;align=center;verticalAlign=middle;whiteSpace=wrap;rounded=0;fontSize=12;fontFamily=Helvetica;fontColor=default;" parent="1" vertex="1">
          <mxGeometry x="765" y="-100" width="60" height="30" as="geometry" />
        </mxCell>
        <mxCell id="IWHVhnK3SDPOk-1DZyC3-195" value="PA ATTN" style="rounded=0;whiteSpace=wrap;html=1;fillColor=#878787;strokeWidth=3;" parent="1" vertex="1">
          <mxGeometry x="445" y="316.5400000000001" width="180" height="80" as="geometry" />
        </mxCell>
        <mxCell id="IWHVhnK3SDPOk-1DZyC3-196" value="IN" style="rounded=0;whiteSpace=wrap;html=1;fillColor=#878787;" parent="1" vertex="1">
          <mxGeometry x="445" y="341.5400000000001" width="30" height="30" as="geometry" />
        </mxCell>
        <mxCell id="IWHVhnK3SDPOk-1DZyC3-197" value="OUT" style="rounded=0;whiteSpace=wrap;html=1;fillColor=#878787;" parent="1" vertex="1">
          <mxGeometry x="595" y="341.5400000000001" width="30" height="30" as="geometry" />
        </mxCell>
        <mxCell id="4JG2JYZn_Jv14RG5rezT-18" style="edgeStyle=orthogonalEdgeStyle;rounded=0;orthogonalLoop=1;jettySize=auto;html=1;entryX=0;entryY=0.5;entryDx=0;entryDy=0;fontFamily=Helvetica;fontSize=12;fontColor=default;strokeColor=#FF9933;strokeWidth=3;" parent="1" source="IWHVhnK3SDPOk-1DZyC3-198" target="IWHVhnK3SDPOk-1DZyC3-196" edge="1">
          <mxGeometry relative="1" as="geometry" />
        </mxCell>
        <mxCell id="IWHVhnK3SDPOk-1DZyC3-198" value="&lt;b&gt;FROM DUT&lt;/b&gt;" style="text;html=1;strokeColor=none;fillColor=none;align=center;verticalAlign=middle;whiteSpace=wrap;rounded=0;" parent="1" vertex="1">
          <mxGeometry x="295" y="341.5400000000001" width="70" height="30" as="geometry" />
        </mxCell>
        <mxCell id="IWHVhnK3SDPOk-1DZyC3-201" value="30dB" style="text;html=1;strokeColor=none;fillColor=none;align=center;verticalAlign=middle;whiteSpace=wrap;rounded=0;fontSize=12;fontFamily=Helvetica;fontColor=default;" parent="1" vertex="1">
          <mxGeometry x="450" y="486.5400000000001" width="30" height="20" as="geometry" />
        </mxCell>
        <mxCell id="IWHVhnK3SDPOk-1DZyC3-202" value="30dB" style="text;html=1;strokeColor=none;fillColor=none;align=center;verticalAlign=middle;whiteSpace=wrap;rounded=0;fontSize=12;fontFamily=Helvetica;fontColor=default;" parent="1" vertex="1">
          <mxGeometry x="450" y="376.5400000000001" width="30" height="20" as="geometry" />
        </mxCell>
        <mxCell id="c6x9nXXjt7grRlhbPBqf-89" style="edgeStyle=orthogonalEdgeStyle;rounded=0;orthogonalLoop=1;jettySize=auto;html=1;entryX=0;entryY=0.5;entryDx=0;entryDy=0;fontFamily=Helvetica;fontSize=12;fontColor=default;" parent="1" source="IWHVhnK3SDPOk-1DZyC3-214" target="IWHVhnK3SDPOk-1DZyC3-178" edge="1">
          <mxGeometry relative="1" as="geometry" />
        </mxCell>
        <mxCell id="IWHVhnK3SDPOk-1DZyC3-214" value="Giga-tronics &lt;br&gt;Power Sensor" style="rounded=0;whiteSpace=wrap;html=1;strokeWidth=3;" parent="1" vertex="1">
          <mxGeometry x="855" y="546.5400000000001" width="175" height="60" as="geometry" />
        </mxCell>
        <mxCell id="IWHVhnK3SDPOk-1DZyC3-215" value="&lt;font style=&quot;font-size: 8px;&quot;&gt;OUT&lt;/font&gt;" style="rounded=0;whiteSpace=wrap;html=1;" parent="1" vertex="1">
          <mxGeometry x="855" y="566.5400000000001" width="25" height="20" as="geometry" />
        </mxCell>
        <mxCell id="IWHVhnK3SDPOk-1DZyC3-216" value="&lt;font style=&quot;font-size: 8px;&quot;&gt;IN&lt;/font&gt;" style="rounded=0;whiteSpace=wrap;html=1;" parent="1" vertex="1">
          <mxGeometry x="1005" y="566.5400000000001" width="25" height="20" as="geometry" />
        </mxCell>
        <mxCell id="pFcQtd23dXAgOlNPRhJu-2" value="" style="verticalLabelPosition=bottom;verticalAlign=top;html=1;shape=mxgraph.basic.x;rounded=0;strokeColor=default;fontFamily=Helvetica;fontSize=12;fontColor=default;fillColor=#FF0000;strokeWidth=1;" parent="1" vertex="1">
          <mxGeometry x="350" y="-675" width="100" height="20" as="geometry" />
        </mxCell>
        <mxCell id="4JG2JYZn_Jv14RG5rezT-7" value="&lt;font style=&quot;font-size: 20px;&quot;&gt;AR Amplifier&lt;br&gt;Below Bench&lt;br&gt;&lt;/font&gt;" style="rounded=0;whiteSpace=wrap;html=1;strokeWidth=3;" parent="1" vertex="1">
          <mxGeometry x="480" y="135" width="245" height="110" as="geometry" />
        </mxCell>
        <mxCell id="4JG2JYZn_Jv14RG5rezT-8" value="RF INPUT" style="rounded=0;whiteSpace=wrap;html=1;" parent="1" vertex="1">
          <mxGeometry x="490" y="135" width="70" height="20" as="geometry" />
        </mxCell>
        <mxCell id="4JG2JYZn_Jv14RG5rezT-9" value="RF OUTPUT" style="rounded=0;whiteSpace=wrap;html=1;" parent="1" vertex="1">
          <mxGeometry x="635" y="135" width="80" height="20" as="geometry" />
        </mxCell>
        <mxCell id="4JG2JYZn_Jv14RG5rezT-13" value="DC OUT" style="rounded=0;whiteSpace=wrap;html=1;fontFamily=Helvetica;fontSize=12;" parent="1" vertex="1">
          <mxGeometry x="1357.5" y="-747.5" width="50" height="30" as="geometry" />
        </mxCell>
        <mxCell id="4JG2JYZn_Jv14RG5rezT-16" value="&lt;b&gt;TO DUT&lt;/b&gt;" style="text;html=1;strokeColor=none;fillColor=none;align=center;verticalAlign=middle;whiteSpace=wrap;rounded=0;fontSize=12;fontFamily=Helvetica;fontColor=default;" parent="1" vertex="1">
          <mxGeometry x="1352.5" y="-692.5" width="60" height="30" as="geometry" />
        </mxCell>
        <mxCell id="4JG2JYZn_Jv14RG5rezT-17" value="&lt;font color=&quot;#3333ff&quot; style=&quot;font-size: 9px;&quot;&gt;&lt;b&gt;48V DC&lt;/b&gt;&lt;/font&gt;" style="text;html=1;strokeColor=none;fillColor=none;align=center;verticalAlign=middle;whiteSpace=wrap;rounded=0;fontSize=12;fontFamily=Helvetica;fontColor=default;" parent="1" vertex="1">
          <mxGeometry x="1352.5" y="-692.5" width="60" height="10" as="geometry" />
        </mxCell>
        <mxCell id="4JG2JYZn_Jv14RG5rezT-20" value="&lt;font style=&quot;font-size: 7px;&quot;&gt;Wideband Power Sensor: +23dBm MAX input&lt;/font&gt;" style="text;html=1;strokeColor=none;fillColor=none;align=center;verticalAlign=middle;whiteSpace=wrap;rounded=0;fontSize=12;fontFamily=Helvetica;fontColor=default;" parent="1" vertex="1">
          <mxGeometry x="1693" y="46.54000000000008" width="165" height="15" as="geometry" />
        </mxCell>
        <mxCell id="4JG2JYZn_Jv14RG5rezT-21" value="&lt;font style=&quot;font-size: 6px;&quot;&gt;ZN2PD2-50&lt;/font&gt;" style="text;html=1;strokeColor=none;fillColor=none;align=center;verticalAlign=middle;whiteSpace=wrap;rounded=0;fontSize=12;fontFamily=Helvetica;fontColor=default;" parent="1" vertex="1">
          <mxGeometry x="1107.5" y="31.539999999999964" width="80" height="20" as="geometry" />
        </mxCell>
        <mxCell id="4JG2JYZn_Jv14RG5rezT-22" value="&lt;font style=&quot;font-size: 6px;&quot;&gt;ZN2PD2-50&lt;/font&gt;" style="text;html=1;strokeColor=none;fillColor=none;align=center;verticalAlign=middle;whiteSpace=wrap;rounded=0;fontSize=12;fontFamily=Helvetica;fontColor=default;" parent="1" vertex="1">
          <mxGeometry x="1132.5" y="-160" width="80" height="20" as="geometry" />
        </mxCell>
        <mxCell id="4JG2JYZn_Jv14RG5rezT-26" value="" style="endArrow=classic;html=1;rounded=0;fontFamily=Helvetica;fontSize=12;fontColor=default;exitX=0.5;exitY=0;exitDx=0;exitDy=0;entryX=0.5;entryY=1;entryDx=0;entryDy=0;entryPerimeter=0;" parent="1" source="IWHVhnK3SDPOk-1DZyC3-133" target="IWHVhnK3SDPOk-1DZyC3-137" edge="1">
          <mxGeometry width="50" height="50" relative="1" as="geometry">
            <mxPoint x="1200" y="-15" as="sourcePoint" />
            <mxPoint x="1250" y="-65" as="targetPoint" />
            <Array as="points">
              <mxPoint x="1178" y="-115" />
              <mxPoint x="1373" y="-115" />
            </Array>
          </mxGeometry>
        </mxCell>
        <mxCell id="4JG2JYZn_Jv14RG5rezT-27" value="" style="endArrow=classic;html=1;rounded=0;fontFamily=Helvetica;fontSize=12;fontColor=default;exitX=0.5;exitY=0;exitDx=0;exitDy=0;entryX=0;entryY=0.5;entryDx=0;entryDy=0;" parent="1" source="IWHVhnK3SDPOk-1DZyC3-132" target="IWHVhnK3SDPOk-1DZyC3-144" edge="1">
          <mxGeometry width="50" height="50" relative="1" as="geometry">
            <mxPoint x="1050" y="-98.45999999999998" as="sourcePoint" />
            <mxPoint x="1100" y="-148.45999999999998" as="targetPoint" />
            <Array as="points">
              <mxPoint x="1068" y="-160.45999999999998" />
            </Array>
          </mxGeometry>
        </mxCell>
        <mxCell id="c6x9nXXjt7grRlhbPBqf-3" value="" style="endArrow=classic;html=1;rounded=0;fontFamily=Helvetica;fontSize=12;fontColor=default;exitX=0.25;exitY=1;exitDx=0;exitDy=0;strokeColor=#3333FF;strokeWidth=2;" parent="1" source="4JG2JYZn_Jv14RG5rezT-13" edge="1">
          <mxGeometry width="50" height="50" relative="1" as="geometry">
            <mxPoint x="1365" y="-682.5" as="sourcePoint" />
            <mxPoint x="1370" y="-692.5" as="targetPoint" />
          </mxGeometry>
        </mxCell>
        <mxCell id="c6x9nXXjt7grRlhbPBqf-4" value="" style="endArrow=classic;html=1;rounded=0;fontFamily=Helvetica;fontSize=12;fontColor=default;exitX=0.75;exitY=1;exitDx=0;exitDy=0;strokeWidth=2;" parent="1" source="4JG2JYZn_Jv14RG5rezT-13" edge="1">
          <mxGeometry width="50" height="50" relative="1" as="geometry">
            <mxPoint x="1395" y="-682.5" as="sourcePoint" />
            <mxPoint x="1395" y="-692.5" as="targetPoint" />
          </mxGeometry>
        </mxCell>
        <mxCell id="c6x9nXXjt7grRlhbPBqf-5" value="&lt;font style=&quot;font-size: 7px;&quot;&gt;OUT&lt;/font&gt;" style="text;html=1;strokeColor=none;fillColor=none;align=center;verticalAlign=middle;whiteSpace=wrap;rounded=0;" parent="1" vertex="1">
          <mxGeometry x="1282.5" y="-520" width="20" height="10" as="geometry" />
        </mxCell>
        <mxCell id="c6x9nXXjt7grRlhbPBqf-6" value="&lt;font style=&quot;font-size: 7px;&quot;&gt;IN&lt;/font&gt;" style="text;html=1;strokeColor=none;fillColor=none;align=center;verticalAlign=middle;whiteSpace=wrap;rounded=0;" parent="1" vertex="1">
          <mxGeometry x="1282.5" y="-475" width="20" height="10" as="geometry" />
        </mxCell>
        <mxCell id="c6x9nXXjt7grRlhbPBqf-7" value="&lt;font style=&quot;font-size: 7px;&quot;&gt;OUT&lt;/font&gt;" style="text;html=1;strokeColor=none;fillColor=none;align=center;verticalAlign=middle;whiteSpace=wrap;rounded=0;" parent="1" vertex="1">
          <mxGeometry x="1642.5" y="-520" width="20" height="10" as="geometry" />
        </mxCell>
        <mxCell id="c6x9nXXjt7grRlhbPBqf-8" value="&lt;font style=&quot;font-size: 7px;&quot;&gt;IN&lt;/font&gt;" style="text;html=1;strokeColor=none;fillColor=none;align=center;verticalAlign=middle;whiteSpace=wrap;rounded=0;" parent="1" vertex="1">
          <mxGeometry x="1642.5" y="-475" width="20" height="10" as="geometry" />
        </mxCell>
        <mxCell id="c6x9nXXjt7grRlhbPBqf-9" value="&lt;font style=&quot;font-size: 6px;&quot;&gt;ZN2PD2-50&lt;/font&gt;" style="text;html=1;strokeColor=none;fillColor=none;align=center;verticalAlign=middle;whiteSpace=wrap;rounded=0;fontSize=12;fontFamily=Helvetica;fontColor=default;" parent="1" vertex="1">
          <mxGeometry x="795" y="-725" width="80" height="20" as="geometry" />
        </mxCell>
        <mxCell id="c6x9nXXjt7grRlhbPBqf-10" value="1" style="rounded=0;whiteSpace=wrap;html=1;fontFamily=Helvetica;fontSize=12;" parent="1" vertex="1">
          <mxGeometry x="1593" y="-827.5" width="40" height="20" as="geometry" />
        </mxCell>
        <mxCell id="c6x9nXXjt7grRlhbPBqf-11" value="2" style="rounded=0;whiteSpace=wrap;html=1;fontFamily=Helvetica;fontSize=12;" parent="1" vertex="1">
          <mxGeometry x="1638" y="-827.5" width="40" height="20" as="geometry" />
        </mxCell>
        <mxCell id="c6x9nXXjt7grRlhbPBqf-12" value="3" style="rounded=0;whiteSpace=wrap;html=1;fontFamily=Helvetica;fontSize=12;" parent="1" vertex="1">
          <mxGeometry x="1683" y="-827.5" width="40" height="20" as="geometry" />
        </mxCell>
        <mxCell id="c6x9nXXjt7grRlhbPBqf-13" value="4" style="rounded=0;whiteSpace=wrap;html=1;fontFamily=Helvetica;fontSize=12;" parent="1" vertex="1">
          <mxGeometry x="1728" y="-827.5" width="40" height="20" as="geometry" />
        </mxCell>
        <mxCell id="c6x9nXXjt7grRlhbPBqf-15" value="&lt;font style=&quot;font-size: 8px;&quot;&gt;POWER&lt;/font&gt;" style="rounded=0;whiteSpace=wrap;html=1;fontFamily=Helvetica;fontSize=12;" parent="1" vertex="1">
          <mxGeometry x="70" y="-830" width="35" height="15" as="geometry" />
        </mxCell>
        <mxCell id="c6x9nXXjt7grRlhbPBqf-17" value="Agilent N1912A &lt;br&gt;Power Sensor" style="rounded=0;whiteSpace=wrap;html=1;strokeWidth=3;" parent="1" vertex="1">
          <mxGeometry x="1695" y="125" width="175" height="60" as="geometry" />
        </mxCell>
        <mxCell id="c6x9nXXjt7grRlhbPBqf-18" value="&lt;font style=&quot;font-size: 8px;&quot;&gt;IN&lt;/font&gt;" style="rounded=0;whiteSpace=wrap;html=1;" parent="1" vertex="1">
          <mxGeometry x="1695" y="145" width="25" height="20" as="geometry" />
        </mxCell>
        <mxCell id="c6x9nXXjt7grRlhbPBqf-22" style="edgeStyle=orthogonalEdgeStyle;rounded=0;orthogonalLoop=1;jettySize=auto;html=1;fontFamily=Helvetica;fontSize=12;fontColor=default;" parent="1" source="c6x9nXXjt7grRlhbPBqf-19" target="IWHVhnK3SDPOk-1DZyC3-112" edge="1">
          <mxGeometry relative="1" as="geometry" />
        </mxCell>
        <mxCell id="c6x9nXXjt7grRlhbPBqf-19" value="&lt;font style=&quot;font-size: 8px;&quot;&gt;OUT&lt;/font&gt;" style="rounded=0;whiteSpace=wrap;html=1;" parent="1" vertex="1">
          <mxGeometry x="1845" y="145" width="25" height="20" as="geometry" />
        </mxCell>
        <mxCell id="c6x9nXXjt7grRlhbPBqf-20" value="&lt;font style=&quot;font-size: 7px;&quot;&gt;Wideband Power Sensor: +23dBm MAX input&lt;/font&gt;" style="text;html=1;strokeColor=none;fillColor=none;align=center;verticalAlign=middle;whiteSpace=wrap;rounded=0;fontSize=12;fontFamily=Helvetica;fontColor=default;" parent="1" vertex="1">
          <mxGeometry x="1695" y="165" width="165" height="15" as="geometry" />
        </mxCell>
        <mxCell id="c6x9nXXjt7grRlhbPBqf-24" value="Opt. to PXA" style="rounded=0;whiteSpace=wrap;html=1;fontFamily=Helvetica;fontSize=12;" parent="1" vertex="1">
          <mxGeometry x="1030" y="410" width="70" height="20" as="geometry" />
        </mxCell>
        <mxCell id="c6x9nXXjt7grRlhbPBqf-25" value="Opt. to PXA" style="rounded=0;whiteSpace=wrap;html=1;fontFamily=Helvetica;fontSize=12;" parent="1" vertex="1">
          <mxGeometry x="1105" y="456.54" width="70" height="20" as="geometry" />
        </mxCell>
        <mxCell id="c6x9nXXjt7grRlhbPBqf-26" value="&lt;font style=&quot;font-size: 7px;&quot;&gt;OUT&lt;/font&gt;" style="text;html=1;strokeColor=none;fillColor=none;align=center;verticalAlign=middle;whiteSpace=wrap;rounded=0;" parent="1" vertex="1">
          <mxGeometry x="1102.5" y="-520" width="20" height="10" as="geometry" />
        </mxCell>
        <mxCell id="c6x9nXXjt7grRlhbPBqf-27" value="&lt;font style=&quot;font-size: 7px;&quot;&gt;IN&lt;/font&gt;" style="text;html=1;strokeColor=none;fillColor=none;align=center;verticalAlign=middle;whiteSpace=wrap;rounded=0;" parent="1" vertex="1">
          <mxGeometry x="1102.5" y="-475" width="20" height="10" as="geometry" />
        </mxCell>
        <mxCell id="c6x9nXXjt7grRlhbPBqf-28" value="&lt;font style=&quot;font-size: 7px;&quot;&gt;OUT&lt;/font&gt;" style="text;html=1;strokeColor=none;fillColor=none;align=center;verticalAlign=middle;whiteSpace=wrap;rounded=0;" parent="1" vertex="1">
          <mxGeometry x="1462.5" y="-520" width="20" height="10" as="geometry" />
        </mxCell>
        <mxCell id="c6x9nXXjt7grRlhbPBqf-29" value="&lt;font style=&quot;font-size: 7px;&quot;&gt;IN&lt;/font&gt;" style="text;html=1;strokeColor=none;fillColor=none;align=center;verticalAlign=middle;whiteSpace=wrap;rounded=0;" parent="1" vertex="1">
          <mxGeometry x="1462.5" y="-475" width="20" height="10" as="geometry" />
        </mxCell>
        <mxCell id="c6x9nXXjt7grRlhbPBqf-31" value="NI USB-6501" style="rounded=0;whiteSpace=wrap;html=1;fontFamily=Helvetica;fontSize=12;" parent="1" vertex="1">
          <mxGeometry x="570" y="641.54" width="170" height="60" as="geometry" />
        </mxCell>
        <mxCell id="c6x9nXXjt7grRlhbPBqf-32" value="&lt;font style=&quot;font-size: 7px;&quot;&gt;24-Line Digital I/O&lt;/font&gt;" style="text;html=1;strokeColor=none;fillColor=none;align=center;verticalAlign=middle;whiteSpace=wrap;rounded=0;fontSize=12;fontFamily=Helvetica;fontColor=default;" parent="1" vertex="1">
          <mxGeometry x="617.5" y="665.96" width="75" height="30" as="geometry" />
        </mxCell>
        <mxCell id="c6x9nXXjt7grRlhbPBqf-33" value="&lt;font style=&quot;font-size: 8px;&quot;&gt;1&lt;/font&gt;" style="rounded=0;whiteSpace=wrap;html=1;fontFamily=Helvetica;fontSize=12;" parent="1" vertex="1">
          <mxGeometry x="575" y="691.54" width="10" height="10" as="geometry" />
        </mxCell>
        <mxCell id="c6x9nXXjt7grRlhbPBqf-35" value="&lt;font style=&quot;font-size: 8px;&quot;&gt;2&lt;/font&gt;" style="rounded=0;whiteSpace=wrap;html=1;fontFamily=Helvetica;fontSize=12;" parent="1" vertex="1">
          <mxGeometry x="585" y="691.54" width="10" height="10" as="geometry" />
        </mxCell>
        <mxCell id="c6x9nXXjt7grRlhbPBqf-36" value="&lt;font style=&quot;font-size: 8px;&quot;&gt;3&lt;/font&gt;" style="rounded=0;whiteSpace=wrap;html=1;fontFamily=Helvetica;fontSize=12;" parent="1" vertex="1">
          <mxGeometry x="595" y="691.54" width="10" height="10" as="geometry" />
        </mxCell>
        <mxCell id="c6x9nXXjt7grRlhbPBqf-39" value="&lt;font style=&quot;font-size: 8px;&quot;&gt;4&lt;/font&gt;" style="rounded=0;whiteSpace=wrap;html=1;fontFamily=Helvetica;fontSize=12;" parent="1" vertex="1">
          <mxGeometry x="605" y="691.54" width="10" height="10" as="geometry" />
        </mxCell>
        <mxCell id="c6x9nXXjt7grRlhbPBqf-40" value="&lt;font style=&quot;font-size: 8px;&quot;&gt;5&lt;/font&gt;" style="rounded=0;whiteSpace=wrap;html=1;fontFamily=Helvetica;fontSize=12;" parent="1" vertex="1">
          <mxGeometry x="615" y="691.54" width="10" height="10" as="geometry" />
        </mxCell>
        <mxCell id="c6x9nXXjt7grRlhbPBqf-41" value="&lt;font style=&quot;font-size: 8px;&quot;&gt;6&lt;/font&gt;" style="rounded=0;whiteSpace=wrap;html=1;fontFamily=Helvetica;fontSize=12;" parent="1" vertex="1">
          <mxGeometry x="625" y="691.54" width="10" height="10" as="geometry" />
        </mxCell>
        <mxCell id="c6x9nXXjt7grRlhbPBqf-42" value="&lt;font style=&quot;font-size: 8px;&quot;&gt;7&lt;/font&gt;" style="rounded=0;whiteSpace=wrap;html=1;fontFamily=Helvetica;fontSize=12;" parent="1" vertex="1">
          <mxGeometry x="635" y="691.54" width="10" height="10" as="geometry" />
        </mxCell>
        <mxCell id="c6x9nXXjt7grRlhbPBqf-43" value="&lt;font style=&quot;font-size: 8px;&quot;&gt;8&lt;/font&gt;" style="rounded=0;whiteSpace=wrap;html=1;fontFamily=Helvetica;fontSize=12;" parent="1" vertex="1">
          <mxGeometry x="645" y="691.54" width="10" height="10" as="geometry" />
        </mxCell>
        <mxCell id="c6x9nXXjt7grRlhbPBqf-44" value="&lt;font style=&quot;font-size: 8px;&quot;&gt;9&lt;/font&gt;" style="rounded=0;whiteSpace=wrap;html=1;fontFamily=Helvetica;fontSize=12;" parent="1" vertex="1">
          <mxGeometry x="655" y="691.54" width="10" height="10" as="geometry" />
        </mxCell>
        <mxCell id="c6x9nXXjt7grRlhbPBqf-45" value="&lt;font style=&quot;font-size: 8px;&quot;&gt;10&lt;/font&gt;" style="rounded=0;whiteSpace=wrap;html=1;fontFamily=Helvetica;fontSize=12;" parent="1" vertex="1">
          <mxGeometry x="665" y="691.54" width="10" height="10" as="geometry" />
        </mxCell>
        <mxCell id="c6x9nXXjt7grRlhbPBqf-46" value="&lt;font style=&quot;font-size: 8px;&quot;&gt;11&lt;/font&gt;" style="rounded=0;whiteSpace=wrap;html=1;fontFamily=Helvetica;fontSize=12;" parent="1" vertex="1">
          <mxGeometry x="675" y="691.54" width="10" height="10" as="geometry" />
        </mxCell>
        <mxCell id="c6x9nXXjt7grRlhbPBqf-47" value="&lt;font style=&quot;font-size: 8px;&quot;&gt;12&lt;/font&gt;" style="rounded=0;whiteSpace=wrap;html=1;fontFamily=Helvetica;fontSize=12;" parent="1" vertex="1">
          <mxGeometry x="685" y="691.54" width="10" height="10" as="geometry" />
        </mxCell>
        <mxCell id="c6x9nXXjt7grRlhbPBqf-48" value="&lt;font style=&quot;font-size: 8px;&quot;&gt;17&lt;/font&gt;" style="rounded=0;whiteSpace=wrap;html=1;fontFamily=Helvetica;fontSize=12;" parent="1" vertex="1">
          <mxGeometry x="575" y="641.54" width="10" height="10" as="geometry" />
        </mxCell>
        <mxCell id="c6x9nXXjt7grRlhbPBqf-49" value="&lt;font style=&quot;font-size: 8px;&quot;&gt;18&lt;/font&gt;" style="rounded=0;whiteSpace=wrap;html=1;fontFamily=Helvetica;fontSize=12;" parent="1" vertex="1">
          <mxGeometry x="585" y="641.54" width="10" height="10" as="geometry" />
        </mxCell>
        <mxCell id="c6x9nXXjt7grRlhbPBqf-50" value="&lt;font style=&quot;font-size: 8px;&quot;&gt;19&lt;/font&gt;" style="rounded=0;whiteSpace=wrap;html=1;fontFamily=Helvetica;fontSize=12;" parent="1" vertex="1">
          <mxGeometry x="595" y="641.54" width="10" height="10" as="geometry" />
        </mxCell>
        <mxCell id="c6x9nXXjt7grRlhbPBqf-51" value="&lt;font style=&quot;font-size: 8px;&quot;&gt;20&lt;/font&gt;" style="rounded=0;whiteSpace=wrap;html=1;fontFamily=Helvetica;fontSize=12;" parent="1" vertex="1">
          <mxGeometry x="605" y="641.54" width="10" height="10" as="geometry" />
        </mxCell>
        <mxCell id="c6x9nXXjt7grRlhbPBqf-52" value="&lt;font style=&quot;font-size: 8px;&quot;&gt;21&lt;/font&gt;" style="rounded=0;whiteSpace=wrap;html=1;fontFamily=Helvetica;fontSize=12;" parent="1" vertex="1">
          <mxGeometry x="615" y="641.54" width="10" height="10" as="geometry" />
        </mxCell>
        <mxCell id="c6x9nXXjt7grRlhbPBqf-53" value="&lt;font style=&quot;font-size: 8px;&quot;&gt;22&lt;/font&gt;" style="rounded=0;whiteSpace=wrap;html=1;fontFamily=Helvetica;fontSize=12;" parent="1" vertex="1">
          <mxGeometry x="625" y="641.54" width="10" height="10" as="geometry" />
        </mxCell>
        <mxCell id="c6x9nXXjt7grRlhbPBqf-54" value="&lt;font style=&quot;font-size: 8px;&quot;&gt;23&lt;/font&gt;" style="rounded=0;whiteSpace=wrap;html=1;fontFamily=Helvetica;fontSize=12;" parent="1" vertex="1">
          <mxGeometry x="635" y="641.54" width="10" height="10" as="geometry" />
        </mxCell>
        <mxCell id="c6x9nXXjt7grRlhbPBqf-55" value="&lt;font style=&quot;font-size: 8px;&quot;&gt;24&lt;/font&gt;" style="rounded=0;whiteSpace=wrap;html=1;fontFamily=Helvetica;fontSize=12;" parent="1" vertex="1">
          <mxGeometry x="645" y="641.54" width="10" height="10" as="geometry" />
        </mxCell>
        <mxCell id="c6x9nXXjt7grRlhbPBqf-56" value="&lt;font style=&quot;font-size: 8px;&quot;&gt;25&lt;/font&gt;" style="rounded=0;whiteSpace=wrap;html=1;fontFamily=Helvetica;fontSize=12;" parent="1" vertex="1">
          <mxGeometry x="655" y="641.54" width="10" height="10" as="geometry" />
        </mxCell>
        <mxCell id="c6x9nXXjt7grRlhbPBqf-57" value="&lt;font style=&quot;font-size: 8px;&quot;&gt;26&lt;/font&gt;" style="rounded=0;whiteSpace=wrap;html=1;fontFamily=Helvetica;fontSize=12;" parent="1" vertex="1">
          <mxGeometry x="665" y="641.54" width="10" height="10" as="geometry" />
        </mxCell>
        <mxCell id="c6x9nXXjt7grRlhbPBqf-58" value="&lt;font style=&quot;font-size: 8px;&quot;&gt;27&lt;/font&gt;" style="rounded=0;whiteSpace=wrap;html=1;fontFamily=Helvetica;fontSize=12;" parent="1" vertex="1">
          <mxGeometry x="675" y="641.54" width="10" height="10" as="geometry" />
        </mxCell>
        <mxCell id="c6x9nXXjt7grRlhbPBqf-59" value="&lt;font style=&quot;font-size: 8px;&quot;&gt;28&lt;/font&gt;" style="rounded=0;whiteSpace=wrap;html=1;fontFamily=Helvetica;fontSize=12;" parent="1" vertex="1">
          <mxGeometry x="685" y="641.54" width="10" height="10" as="geometry" />
        </mxCell>
        <mxCell id="c6x9nXXjt7grRlhbPBqf-60" value="&lt;font style=&quot;font-size: 8px;&quot;&gt;29&lt;/font&gt;" style="rounded=0;whiteSpace=wrap;html=1;fontFamily=Helvetica;fontSize=12;" parent="1" vertex="1">
          <mxGeometry x="695" y="641.54" width="10" height="10" as="geometry" />
        </mxCell>
        <mxCell id="c6x9nXXjt7grRlhbPBqf-61" value="&lt;font style=&quot;font-size: 8px;&quot;&gt;30&lt;/font&gt;" style="rounded=0;whiteSpace=wrap;html=1;fontFamily=Helvetica;fontSize=12;" parent="1" vertex="1">
          <mxGeometry x="705" y="641.54" width="10" height="10" as="geometry" />
        </mxCell>
        <mxCell id="c6x9nXXjt7grRlhbPBqf-62" value="&lt;span style=&quot;font-size: 8px;&quot;&gt;31&lt;/span&gt;" style="rounded=0;whiteSpace=wrap;html=1;fontFamily=Helvetica;fontSize=12;" parent="1" vertex="1">
          <mxGeometry x="715" y="641.54" width="10" height="10" as="geometry" />
        </mxCell>
        <mxCell id="c6x9nXXjt7grRlhbPBqf-63" value="&lt;font style=&quot;font-size: 8px;&quot;&gt;32&lt;/font&gt;" style="rounded=0;whiteSpace=wrap;html=1;fontFamily=Helvetica;fontSize=12;" parent="1" vertex="1">
          <mxGeometry x="725" y="641.54" width="10" height="10" as="geometry" />
        </mxCell>
        <mxCell id="c6x9nXXjt7grRlhbPBqf-64" value="&lt;font style=&quot;font-size: 8px;&quot;&gt;13&lt;/font&gt;" style="rounded=0;whiteSpace=wrap;html=1;fontFamily=Helvetica;fontSize=12;" parent="1" vertex="1">
          <mxGeometry x="695" y="691.54" width="10" height="10" as="geometry" />
        </mxCell>
        <mxCell id="c6x9nXXjt7grRlhbPBqf-65" value="&lt;font style=&quot;font-size: 8px;&quot;&gt;14&lt;/font&gt;" style="rounded=0;whiteSpace=wrap;html=1;fontFamily=Helvetica;fontSize=12;" parent="1" vertex="1">
          <mxGeometry x="705" y="691.54" width="10" height="10" as="geometry" />
        </mxCell>
        <mxCell id="c6x9nXXjt7grRlhbPBqf-66" value="&lt;font style=&quot;font-size: 8px;&quot;&gt;15&lt;/font&gt;" style="rounded=0;whiteSpace=wrap;html=1;fontFamily=Helvetica;fontSize=12;" parent="1" vertex="1">
          <mxGeometry x="715" y="691.54" width="10" height="10" as="geometry" />
        </mxCell>
        <mxCell id="c6x9nXXjt7grRlhbPBqf-67" value="&lt;font style=&quot;font-size: 8px;&quot;&gt;16&lt;/font&gt;" style="rounded=0;whiteSpace=wrap;html=1;fontFamily=Helvetica;fontSize=12;" parent="1" vertex="1">
          <mxGeometry x="725" y="691.54" width="10" height="10" as="geometry" />
        </mxCell>
        <mxCell id="c6x9nXXjt7grRlhbPBqf-84" value="" style="edgeStyle=orthogonalEdgeStyle;rounded=0;orthogonalLoop=1;jettySize=auto;html=1;fontFamily=Helvetica;fontSize=12;fontColor=default;" parent="1" source="c6x9nXXjt7grRlhbPBqf-68" target="c6x9nXXjt7grRlhbPBqf-82" edge="1">
          <mxGeometry relative="1" as="geometry" />
        </mxCell>
        <mxCell id="c6x9nXXjt7grRlhbPBqf-68" value="USB" style="rounded=0;whiteSpace=wrap;html=1;fontFamily=Helvetica;fontSize=12;" parent="1" vertex="1">
          <mxGeometry x="570" y="659.5400000000001" width="35" height="24" as="geometry" />
        </mxCell>
        <mxCell id="c6x9nXXjt7grRlhbPBqf-69" value="" style="endArrow=none;html=1;rounded=0;fontFamily=Helvetica;fontSize=12;fontColor=default;entryX=0.5;entryY=1;entryDx=0;entryDy=0;" parent="1" target="c6x9nXXjt7grRlhbPBqf-43" edge="1">
          <mxGeometry width="50" height="50" relative="1" as="geometry">
            <mxPoint x="650" y="780" as="sourcePoint" />
            <mxPoint x="710" y="720" as="targetPoint" />
          </mxGeometry>
        </mxCell>
        <mxCell id="c6x9nXXjt7grRlhbPBqf-79" value="&lt;font style=&quot;font-size: 4px;&quot;&gt;GND&lt;/font&gt;" style="edgeLabel;html=1;align=center;verticalAlign=middle;resizable=0;points=[];fontSize=12;fontFamily=Helvetica;fontColor=default;rotation=-90;" parent="c6x9nXXjt7grRlhbPBqf-69" vertex="1" connectable="0">
          <mxGeometry x="0.2164" y="1" relative="1" as="geometry">
            <mxPoint x="-2" as="offset" />
          </mxGeometry>
        </mxCell>
        <mxCell id="c6x9nXXjt7grRlhbPBqf-70" value="" style="endArrow=none;html=1;rounded=0;fontFamily=Helvetica;fontSize=12;fontColor=default;entryX=0.5;entryY=1;entryDx=0;entryDy=0;strokeColor=#C4C4C4;" parent="1" edge="1">
          <mxGeometry width="50" height="50" relative="1" as="geometry">
            <mxPoint x="659.89" y="779.54" as="sourcePoint" />
            <mxPoint x="659.89" y="701.54" as="targetPoint" />
          </mxGeometry>
        </mxCell>
        <mxCell id="c6x9nXXjt7grRlhbPBqf-71" value="" style="endArrow=none;html=1;rounded=0;fontFamily=Helvetica;fontSize=12;fontColor=default;entryX=0.5;entryY=1;entryDx=0;entryDy=0;strokeColor=#FF8000;dashed=1;" parent="1" edge="1">
          <mxGeometry width="50" height="50" relative="1" as="geometry">
            <mxPoint x="669.89" y="779.54" as="sourcePoint" />
            <mxPoint x="669.89" y="701.54" as="targetPoint" />
          </mxGeometry>
        </mxCell>
        <mxCell id="c6x9nXXjt7grRlhbPBqf-72" value="" style="endArrow=none;html=1;rounded=0;fontFamily=Helvetica;fontSize=12;fontColor=default;entryX=0.5;entryY=1;entryDx=0;entryDy=0;strokeColor=#FFD966;" parent="1" edge="1">
          <mxGeometry width="50" height="50" relative="1" as="geometry">
            <mxPoint x="679.89" y="779.54" as="sourcePoint" />
            <mxPoint x="679.89" y="701.54" as="targetPoint" />
          </mxGeometry>
        </mxCell>
        <mxCell id="c6x9nXXjt7grRlhbPBqf-73" value="" style="endArrow=none;html=1;rounded=0;fontFamily=Helvetica;fontSize=12;fontColor=default;entryX=0.5;entryY=1;entryDx=0;entryDy=0;strokeColor=#FF00FF;" parent="1" edge="1">
          <mxGeometry width="50" height="50" relative="1" as="geometry">
            <mxPoint x="689.89" y="779.54" as="sourcePoint" />
            <mxPoint x="689.89" y="701.54" as="targetPoint" />
          </mxGeometry>
        </mxCell>
        <mxCell id="c6x9nXXjt7grRlhbPBqf-74" value="" style="endArrow=none;html=1;rounded=0;fontFamily=Helvetica;fontSize=12;fontColor=default;entryX=0.5;entryY=1;entryDx=0;entryDy=0;strokeColor=#FF8000;" parent="1" edge="1">
          <mxGeometry width="50" height="50" relative="1" as="geometry">
            <mxPoint x="699.89" y="780" as="sourcePoint" />
            <mxPoint x="699.89" y="702" as="targetPoint" />
          </mxGeometry>
        </mxCell>
        <mxCell id="c6x9nXXjt7grRlhbPBqf-75" value="" style="endArrow=none;html=1;rounded=0;fontFamily=Helvetica;fontSize=12;fontColor=default;entryX=0.5;entryY=1;entryDx=0;entryDy=0;strokeColor=#00CC00;" parent="1" edge="1">
          <mxGeometry width="50" height="50" relative="1" as="geometry">
            <mxPoint x="709.78" y="779.54" as="sourcePoint" />
            <mxPoint x="709.78" y="701.54" as="targetPoint" />
          </mxGeometry>
        </mxCell>
        <mxCell id="c6x9nXXjt7grRlhbPBqf-76" value="" style="endArrow=none;html=1;rounded=0;fontFamily=Helvetica;fontSize=12;fontColor=default;entryX=0.5;entryY=1;entryDx=0;entryDy=0;strokeColor=#3333FF;" parent="1" edge="1">
          <mxGeometry width="50" height="50" relative="1" as="geometry">
            <mxPoint x="719.78" y="779.54" as="sourcePoint" />
            <mxPoint x="719.78" y="701.54" as="targetPoint" />
          </mxGeometry>
        </mxCell>
        <mxCell id="c6x9nXXjt7grRlhbPBqf-77" value="" style="endArrow=none;html=1;rounded=0;fontFamily=Helvetica;fontSize=12;fontColor=default;entryX=0.5;entryY=1;entryDx=0;entryDy=0;strokeColor=#FF0000;" parent="1" edge="1">
          <mxGeometry width="50" height="50" relative="1" as="geometry">
            <mxPoint x="729.78" y="779.54" as="sourcePoint" />
            <mxPoint x="729.78" y="701.54" as="targetPoint" />
          </mxGeometry>
        </mxCell>
        <mxCell id="c6x9nXXjt7grRlhbPBqf-82" value="&lt;b&gt;TO PC&lt;/b&gt;" style="text;html=1;strokeColor=none;fillColor=none;align=center;verticalAlign=middle;whiteSpace=wrap;rounded=0;fontSize=12;fontFamily=Helvetica;fontColor=default;" parent="1" vertex="1">
          <mxGeometry x="460" y="655.96" width="60" height="30" as="geometry" />
        </mxCell>
        <mxCell id="c6x9nXXjt7grRlhbPBqf-86" value="&lt;b&gt;TO DUT&lt;/b&gt;" style="text;html=1;strokeColor=none;fillColor=none;align=center;verticalAlign=middle;whiteSpace=wrap;rounded=0;fontSize=12;fontFamily=Helvetica;fontColor=default;" parent="1" vertex="1">
          <mxGeometry x="660" y="780" width="60" height="30" as="geometry" />
        </mxCell>
        <mxCell id="c6x9nXXjt7grRlhbPBqf-90" value="ATTN" style="shape=cylinder3;whiteSpace=wrap;html=1;boundedLbl=1;backgroundOutline=1;size=5.816327999799455;fillColor=#78727A;strokeColor=#000000;strokeWidth=2;" parent="1" vertex="1">
          <mxGeometry x="1135" y="60.960000000000036" width="40" height="50" as="geometry" />
        </mxCell>
        <mxCell id="c6x9nXXjt7grRlhbPBqf-92" value="ATTN" style="rounded=0;whiteSpace=wrap;html=1;strokeColor=#000000;fontFamily=Helvetica;fontSize=12;fontColor=default;fillColor=#737373;strokeWidth=2;" parent="1" vertex="1">
          <mxGeometry x="717.5" y="486.54" width="35" height="20.19" as="geometry" />
        </mxCell>
        <mxCell id="c6x9nXXjt7grRlhbPBqf-93" value="" style="endArrow=none;html=1;rounded=0;fontFamily=Helvetica;fontSize=12;fontColor=default;entryX=0.5;entryY=1;entryDx=0;entryDy=0;exitX=0.5;exitY=0;exitDx=0;exitDy=0;" parent="1" source="c6x9nXXjt7grRlhbPBqf-92" target="IWHVhnK3SDPOk-1DZyC3-173" edge="1">
          <mxGeometry width="50" height="50" relative="1" as="geometry">
            <mxPoint x="730" y="580" as="sourcePoint" />
            <mxPoint x="780" y="530" as="targetPoint" />
          </mxGeometry>
        </mxCell>
        <mxCell id="c6x9nXXjt7grRlhbPBqf-94" value="" style="endArrow=none;html=1;rounded=0;fontFamily=Helvetica;fontSize=12;fontColor=default;entryX=0.415;entryY=0.986;entryDx=0;entryDy=0;entryPerimeter=0;exitX=0.425;exitY=-0.015;exitDx=0;exitDy=0;exitPerimeter=0;strokeColor=#C4C4C4;" parent="1" source="4JG2JYZn_Jv14RG5rezT-17" target="4JG2JYZn_Jv14RG5rezT-13" edge="1">
          <mxGeometry width="50" height="50" relative="1" as="geometry">
            <mxPoint x="1305" y="-672.5" as="sourcePoint" />
            <mxPoint x="1345" y="-702.5" as="targetPoint" />
          </mxGeometry>
        </mxCell>
        <mxCell id="c6x9nXXjt7grRlhbPBqf-95" value="" style="endArrow=none;html=1;rounded=0;fontFamily=Helvetica;fontSize=12;fontColor=default;entryX=0.415;entryY=0.986;entryDx=0;entryDy=0;entryPerimeter=0;exitX=0.425;exitY=-0.015;exitDx=0;exitDy=0;exitPerimeter=0;strokeColor=#FFD966;" parent="1" edge="1">
          <mxGeometry width="50" height="50" relative="1" as="geometry">
            <mxPoint x="1387.5" y="-692.5" as="sourcePoint" />
            <mxPoint x="1387.5" y="-717.5" as="targetPoint" />
          </mxGeometry>
        </mxCell>
        <mxCell id="c6x9nXXjt7grRlhbPBqf-97" value="Keithley S46 Microwave Switch System" style="text;html=1;strokeColor=none;fillColor=none;align=center;verticalAlign=middle;whiteSpace=wrap;rounded=0;fontSize=12;fontFamily=Helvetica;fontColor=default;" parent="1" vertex="1">
          <mxGeometry x="20" y="-575" width="155" height="30" as="geometry" />
        </mxCell>
        <mxCell id="c6x9nXXjt7grRlhbPBqf-98" value="&lt;font style=&quot;font-size: 8px;&quot;&gt;Vector Signal Generator&lt;/font&gt;" style="text;html=1;strokeColor=none;fillColor=none;align=left;verticalAlign=middle;whiteSpace=wrap;rounded=0;fontSize=12;fontFamily=Helvetica;fontColor=default;" parent="1" vertex="1">
          <mxGeometry x="100" y="135" width="100" height="30" as="geometry" />
        </mxCell>
        <mxCell id="c6x9nXXjt7grRlhbPBqf-99" value="&lt;font style=&quot;font-size: 8px;&quot;&gt;Vector Signal Generator&lt;/font&gt;" style="text;html=1;strokeColor=none;fillColor=none;align=left;verticalAlign=middle;whiteSpace=wrap;rounded=0;fontSize=12;fontFamily=Helvetica;fontColor=default;" parent="1" vertex="1">
          <mxGeometry x="785" y="-805" width="100" height="30" as="geometry" />
        </mxCell>
        <mxCell id="c6x9nXXjt7grRlhbPBqf-100" value="&lt;font style=&quot;font-size: 8px;&quot;&gt;Vector Signal Generator&lt;/font&gt;" style="text;html=1;strokeColor=none;fillColor=none;align=left;verticalAlign=middle;whiteSpace=wrap;rounded=0;fontSize=12;fontFamily=Helvetica;fontColor=default;" parent="1" vertex="1">
          <mxGeometry x="100" y="233.75" width="100" height="30" as="geometry" />
        </mxCell>
        <mxCell id="c6x9nXXjt7grRlhbPBqf-101" value="N9030A Signal Analyzer" style="text;html=1;strokeColor=none;fillColor=none;align=center;verticalAlign=middle;whiteSpace=wrap;rounded=0;fontSize=12;fontFamily=Helvetica;fontColor=default;" parent="1" vertex="1">
          <mxGeometry x="1392.5" y="-185" width="137" height="30" as="geometry" />
        </mxCell>
        <mxCell id="4MABuNcmlsiJ_IKFp13X-9" value="&lt;font style=&quot;font-size: 10px;&quot;&gt;Signal and Spectrum Analyzer&lt;/font&gt;" style="text;html=1;strokeColor=none;fillColor=none;align=left;verticalAlign=middle;whiteSpace=wrap;rounded=0;" parent="1" vertex="1">
          <mxGeometry x="1707.5" y="-253.45999999999998" width="152.5" height="30" as="geometry" />
        </mxCell>
        <mxCell id="4MABuNcmlsiJ_IKFp13X-11" value="&lt;font style=&quot;font-size: 10px;&quot;&gt;Universal Power Meter&lt;/font&gt;" style="text;html=1;strokeColor=none;fillColor=none;align=center;verticalAlign=middle;whiteSpace=wrap;rounded=0;" parent="1" vertex="1">
          <mxGeometry x="1135" y="586.54" width="130" height="30" as="geometry" />
        </mxCell>
        <mxCell id="4MABuNcmlsiJ_IKFp13X-12" value="" style="ellipse;whiteSpace=wrap;html=1;aspect=fixed;" parent="1" vertex="1">
          <mxGeometry x="885" y="-792.5" width="15" height="15" as="geometry" />
        </mxCell>
        <mxCell id="4MABuNcmlsiJ_IKFp13X-13" value="" style="ellipse;whiteSpace=wrap;html=1;aspect=fixed;" parent="1" vertex="1">
          <mxGeometry x="200" y="248.75" width="15" height="15" as="geometry" />
        </mxCell>
        <mxCell id="4MABuNcmlsiJ_IKFp13X-14" value="" style="ellipse;whiteSpace=wrap;html=1;aspect=fixed;" parent="1" vertex="1">
          <mxGeometry x="200" y="150" width="15" height="15" as="geometry" />
        </mxCell>
      </root>
    </mxGraphModel>
  </diagram>
  <diagram id="24LEwtPUEuPUrH7V_wcJ" name="Switchbox">
    <mxGraphModel dx="454" dy="231" grid="1" gridSize="10" guides="1" tooltips="1" connect="1" arrows="1" fold="1" page="1" pageScale="1" pageWidth="850" pageHeight="1100" math="0" shadow="0">
      <root>
        <mxCell id="0" />
        <mxCell id="1" parent="0" />
        <mxCell id="cracgQuP-_dx15mc9rHu-1" value="" style="rounded=0;whiteSpace=wrap;html=1;" vertex="1" parent="1">
          <mxGeometry x="490" y="50" width="830" height="140" as="geometry" />
        </mxCell>
        <mxCell id="cracgQuP-_dx15mc9rHu-2" value="NO&amp;nbsp; &amp;nbsp;C&amp;nbsp; &amp;nbsp;NC" style="rounded=0;whiteSpace=wrap;html=1;" vertex="1" parent="1">
          <mxGeometry x="490" y="60" width="70" height="20" as="geometry" />
        </mxCell>
        <mxCell id="cracgQuP-_dx15mc9rHu-3" value="Relay #1" style="text;html=1;strokeColor=none;fillColor=none;align=center;verticalAlign=middle;whiteSpace=wrap;rounded=0;" vertex="1" parent="1">
          <mxGeometry x="495" y="80" width="60" height="10" as="geometry" />
        </mxCell>
        <mxCell id="cracgQuP-_dx15mc9rHu-4" value="NO&amp;nbsp; &amp;nbsp;C&amp;nbsp; &amp;nbsp;NC" style="rounded=0;whiteSpace=wrap;html=1;" vertex="1" parent="1">
          <mxGeometry x="590" y="60" width="70" height="20" as="geometry" />
        </mxCell>
        <mxCell id="cracgQuP-_dx15mc9rHu-5" value="Relay #2" style="text;html=1;strokeColor=none;fillColor=none;align=center;verticalAlign=middle;whiteSpace=wrap;rounded=0;" vertex="1" parent="1">
          <mxGeometry x="595" y="80" width="60" height="10" as="geometry" />
        </mxCell>
        <mxCell id="cracgQuP-_dx15mc9rHu-6" value="NO&amp;nbsp; &amp;nbsp;C&amp;nbsp; &amp;nbsp;NC" style="rounded=0;whiteSpace=wrap;html=1;" vertex="1" parent="1">
          <mxGeometry x="700" y="60" width="70" height="20" as="geometry" />
        </mxCell>
        <mxCell id="cracgQuP-_dx15mc9rHu-7" value="Relay #3" style="text;html=1;strokeColor=none;fillColor=none;align=center;verticalAlign=middle;whiteSpace=wrap;rounded=0;" vertex="1" parent="1">
          <mxGeometry x="705" y="80" width="60" height="10" as="geometry" />
        </mxCell>
        <mxCell id="cracgQuP-_dx15mc9rHu-8" value="NO&amp;nbsp; &amp;nbsp;C&amp;nbsp; &amp;nbsp;NC" style="rounded=0;whiteSpace=wrap;html=1;" vertex="1" parent="1">
          <mxGeometry x="810" y="60" width="70" height="20" as="geometry" />
        </mxCell>
        <mxCell id="cracgQuP-_dx15mc9rHu-9" value="Relay #4" style="text;html=1;strokeColor=none;fillColor=none;align=center;verticalAlign=middle;whiteSpace=wrap;rounded=0;" vertex="1" parent="1">
          <mxGeometry x="815" y="80" width="60" height="10" as="geometry" />
        </mxCell>
        <mxCell id="cracgQuP-_dx15mc9rHu-10" value="" style="ellipse;whiteSpace=wrap;html=1;aspect=fixed;" vertex="1" parent="1">
          <mxGeometry x="930" y="100" width="80" height="80" as="geometry" />
        </mxCell>
        <mxCell id="cracgQuP-_dx15mc9rHu-11" value="1" style="ellipse;whiteSpace=wrap;html=1;aspect=fixed;fillColor=#ffe6cc;strokeColor=#d79b00;" vertex="1" parent="1">
          <mxGeometry x="965" y="110" width="10" height="10" as="geometry" />
        </mxCell>
        <mxCell id="rtgW14V8HbSzsuVVDKUk-1" style="edgeStyle=orthogonalEdgeStyle;rounded=0;orthogonalLoop=1;jettySize=auto;html=1;fontFamily=Helvetica;fontSize=12;fontColor=default;strokeColor=#FF9933;" edge="1" parent="1" source="cracgQuP-_dx15mc9rHu-12">
          <mxGeometry relative="1" as="geometry">
            <mxPoint x="1010.0000000000002" y="250" as="targetPoint" />
            <Array as="points">
              <mxPoint x="1010" y="125" />
            </Array>
          </mxGeometry>
        </mxCell>
        <mxCell id="cracgQuP-_dx15mc9rHu-12" value="2" style="ellipse;whiteSpace=wrap;html=1;aspect=fixed;fillColor=#ffe6cc;strokeColor=#d79b00;" vertex="1" parent="1">
          <mxGeometry x="990" y="120" width="10" height="10" as="geometry" />
        </mxCell>
        <mxCell id="cracgQuP-_dx15mc9rHu-13" value="3" style="ellipse;whiteSpace=wrap;html=1;aspect=fixed;" vertex="1" parent="1">
          <mxGeometry x="990" y="150" width="10" height="10" as="geometry" />
        </mxCell>
        <mxCell id="cracgQuP-_dx15mc9rHu-14" value="4" style="ellipse;whiteSpace=wrap;html=1;aspect=fixed;" vertex="1" parent="1">
          <mxGeometry x="965" y="160" width="10" height="10" as="geometry" />
        </mxCell>
        <mxCell id="cracgQuP-_dx15mc9rHu-15" value="5" style="ellipse;whiteSpace=wrap;html=1;aspect=fixed;" vertex="1" parent="1">
          <mxGeometry x="940" y="150" width="10" height="10" as="geometry" />
        </mxCell>
        <mxCell id="cracgQuP-_dx15mc9rHu-16" value="6" style="ellipse;whiteSpace=wrap;html=1;aspect=fixed;fillColor=#dae8fc;strokeColor=#6c8ebf;" vertex="1" parent="1">
          <mxGeometry x="940" y="120" width="10" height="10" as="geometry" />
        </mxCell>
        <mxCell id="cracgQuP-_dx15mc9rHu-17" value="&lt;font style=&quot;font-size: 10px;&quot;&gt;C&lt;/font&gt;" style="ellipse;whiteSpace=wrap;html=1;aspect=fixed;fillColor=#D4D4D4;fontColor=#333333;strokeColor=#666666;" vertex="1" parent="1">
          <mxGeometry x="965" y="135" width="10" height="10" as="geometry" />
        </mxCell>
        <mxCell id="cracgQuP-_dx15mc9rHu-18" value="Relay A" style="text;html=1;strokeColor=none;fillColor=none;align=center;verticalAlign=middle;whiteSpace=wrap;rounded=0;" vertex="1" parent="1">
          <mxGeometry x="940" y="90" width="60" height="10" as="geometry" />
        </mxCell>
        <mxCell id="cracgQuP-_dx15mc9rHu-19" value="" style="ellipse;whiteSpace=wrap;html=1;aspect=fixed;" vertex="1" parent="1">
          <mxGeometry x="1020" y="100" width="80" height="80" as="geometry" />
        </mxCell>
        <mxCell id="cracgQuP-_dx15mc9rHu-20" value="1" style="ellipse;whiteSpace=wrap;html=1;aspect=fixed;" vertex="1" parent="1">
          <mxGeometry x="1055" y="110" width="10" height="10" as="geometry" />
        </mxCell>
        <mxCell id="qEag_ER_BW9Q_BWH1c51-1" style="edgeStyle=orthogonalEdgeStyle;rounded=0;orthogonalLoop=1;jettySize=auto;html=1;fontFamily=Helvetica;fontSize=12;fontColor=default;" edge="1" parent="1" source="cracgQuP-_dx15mc9rHu-21">
          <mxGeometry relative="1" as="geometry">
            <mxPoint x="1110.0000000000002" y="250" as="targetPoint" />
          </mxGeometry>
        </mxCell>
        <mxCell id="cracgQuP-_dx15mc9rHu-21" value="2" style="ellipse;whiteSpace=wrap;html=1;aspect=fixed;fillColor=#9C630E;strokeColor=#755500;gradientColor=none;" vertex="1" parent="1">
          <mxGeometry x="1080" y="120" width="10" height="10" as="geometry" />
        </mxCell>
        <mxCell id="cracgQuP-_dx15mc9rHu-22" value="3" style="ellipse;whiteSpace=wrap;html=1;aspect=fixed;fillColor=#D4D4D4;fontColor=#333333;strokeColor=#666666;" vertex="1" parent="1">
          <mxGeometry x="1080" y="150" width="10" height="10" as="geometry" />
        </mxCell>
        <mxCell id="cracgQuP-_dx15mc9rHu-23" value="4" style="ellipse;whiteSpace=wrap;html=1;aspect=fixed;" vertex="1" parent="1">
          <mxGeometry x="1055" y="160" width="10" height="10" as="geometry" />
        </mxCell>
        <mxCell id="cracgQuP-_dx15mc9rHu-24" value="5" style="ellipse;whiteSpace=wrap;html=1;aspect=fixed;" vertex="1" parent="1">
          <mxGeometry x="1030" y="150" width="10" height="10" as="geometry" />
        </mxCell>
        <mxCell id="cracgQuP-_dx15mc9rHu-25" value="6" style="ellipse;whiteSpace=wrap;html=1;aspect=fixed;" vertex="1" parent="1">
          <mxGeometry x="1030" y="120" width="10" height="10" as="geometry" />
        </mxCell>
        <mxCell id="cracgQuP-_dx15mc9rHu-26" value="&lt;font style=&quot;font-size: 10px;&quot;&gt;C&lt;/font&gt;" style="ellipse;whiteSpace=wrap;html=1;aspect=fixed;fillColor=#D4D4D4;strokeColor=#737373;" vertex="1" parent="1">
          <mxGeometry x="1055" y="135" width="10" height="10" as="geometry" />
        </mxCell>
        <mxCell id="cracgQuP-_dx15mc9rHu-27" value="Relay B" style="text;html=1;strokeColor=none;fillColor=none;align=center;verticalAlign=middle;whiteSpace=wrap;rounded=0;" vertex="1" parent="1">
          <mxGeometry x="1030" y="90" width="60" height="10" as="geometry" />
        </mxCell>
        <mxCell id="cracgQuP-_dx15mc9rHu-28" value="" style="ellipse;whiteSpace=wrap;html=1;aspect=fixed;" vertex="1" parent="1">
          <mxGeometry x="1110" y="100" width="80" height="80" as="geometry" />
        </mxCell>
        <mxCell id="cracgQuP-_dx15mc9rHu-29" value="1" style="ellipse;whiteSpace=wrap;html=1;aspect=fixed;fillColor=#dae8fc;strokeColor=#6c8ebf;" vertex="1" parent="1">
          <mxGeometry x="1145" y="110" width="10" height="10" as="geometry" />
        </mxCell>
        <mxCell id="cracgQuP-_dx15mc9rHu-30" value="2" style="ellipse;whiteSpace=wrap;html=1;aspect=fixed;" vertex="1" parent="1">
          <mxGeometry x="1170" y="120" width="10" height="10" as="geometry" />
        </mxCell>
        <mxCell id="cracgQuP-_dx15mc9rHu-31" value="3" style="ellipse;whiteSpace=wrap;html=1;aspect=fixed;" vertex="1" parent="1">
          <mxGeometry x="1170" y="150" width="10" height="10" as="geometry" />
        </mxCell>
        <mxCell id="cracgQuP-_dx15mc9rHu-32" value="4" style="ellipse;whiteSpace=wrap;html=1;aspect=fixed;" vertex="1" parent="1">
          <mxGeometry x="1145" y="160" width="10" height="10" as="geometry" />
        </mxCell>
        <mxCell id="cracgQuP-_dx15mc9rHu-33" value="5" style="ellipse;whiteSpace=wrap;html=1;aspect=fixed;" vertex="1" parent="1">
          <mxGeometry x="1120" y="150" width="10" height="10" as="geometry" />
        </mxCell>
        <mxCell id="cracgQuP-_dx15mc9rHu-34" value="6" style="ellipse;whiteSpace=wrap;html=1;aspect=fixed;" vertex="1" parent="1">
          <mxGeometry x="1120" y="120" width="10" height="10" as="geometry" />
        </mxCell>
        <mxCell id="cracgQuP-_dx15mc9rHu-35" value="&lt;font style=&quot;font-size: 10px;&quot;&gt;C&lt;/font&gt;" style="ellipse;whiteSpace=wrap;html=1;aspect=fixed;fillColor=#D4D4D4;fontColor=#333333;strokeColor=#666666;" vertex="1" parent="1">
          <mxGeometry x="1145" y="135" width="10" height="10" as="geometry" />
        </mxCell>
        <mxCell id="cracgQuP-_dx15mc9rHu-36" value="Relay C" style="text;html=1;strokeColor=none;fillColor=none;align=center;verticalAlign=middle;whiteSpace=wrap;rounded=0;" vertex="1" parent="1">
          <mxGeometry x="1120" y="90" width="60" height="10" as="geometry" />
        </mxCell>
        <mxCell id="cracgQuP-_dx15mc9rHu-37" value="" style="ellipse;whiteSpace=wrap;html=1;aspect=fixed;" vertex="1" parent="1">
          <mxGeometry x="1200" y="100" width="80" height="80" as="geometry" />
        </mxCell>
        <mxCell id="cracgQuP-_dx15mc9rHu-38" value="1" style="ellipse;whiteSpace=wrap;html=1;aspect=fixed;" vertex="1" parent="1">
          <mxGeometry x="1235" y="110" width="10" height="10" as="geometry" />
        </mxCell>
        <mxCell id="cracgQuP-_dx15mc9rHu-39" value="2" style="ellipse;whiteSpace=wrap;html=1;aspect=fixed;fillColor=#dae8fc;strokeColor=#6c8ebf;" vertex="1" parent="1">
          <mxGeometry x="1260" y="120" width="10" height="10" as="geometry" />
        </mxCell>
        <mxCell id="cracgQuP-_dx15mc9rHu-40" value="3" style="ellipse;whiteSpace=wrap;html=1;aspect=fixed;" vertex="1" parent="1">
          <mxGeometry x="1260" y="150" width="10" height="10" as="geometry" />
        </mxCell>
        <mxCell id="cracgQuP-_dx15mc9rHu-41" value="4" style="ellipse;whiteSpace=wrap;html=1;aspect=fixed;" vertex="1" parent="1">
          <mxGeometry x="1235" y="160" width="10" height="10" as="geometry" />
        </mxCell>
        <mxCell id="cracgQuP-_dx15mc9rHu-42" value="5" style="ellipse;whiteSpace=wrap;html=1;aspect=fixed;fillColor=#ffe6cc;strokeColor=#d79b00;" vertex="1" parent="1">
          <mxGeometry x="1210" y="150" width="10" height="10" as="geometry" />
        </mxCell>
        <mxCell id="cracgQuP-_dx15mc9rHu-43" value="6" style="ellipse;whiteSpace=wrap;html=1;aspect=fixed;fillColor=#ffe6cc;strokeColor=#d79b00;" vertex="1" parent="1">
          <mxGeometry x="1210" y="120" width="10" height="10" as="geometry" />
        </mxCell>
        <mxCell id="cracgQuP-_dx15mc9rHu-44" value="&lt;font style=&quot;font-size: 10px;&quot;&gt;C&lt;/font&gt;" style="ellipse;whiteSpace=wrap;html=1;aspect=fixed;fillColor=#D4D4D4;fontColor=#333333;strokeColor=#666666;" vertex="1" parent="1">
          <mxGeometry x="1235" y="135" width="10" height="10" as="geometry" />
        </mxCell>
        <mxCell id="cracgQuP-_dx15mc9rHu-45" value="Relay D" style="text;html=1;strokeColor=none;fillColor=none;align=center;verticalAlign=middle;whiteSpace=wrap;rounded=0;" vertex="1" parent="1">
          <mxGeometry x="1210" y="90" width="60" height="10" as="geometry" />
        </mxCell>
        <mxCell id="cracgQuP-_dx15mc9rHu-46" value="" style="endArrow=none;html=1;rounded=0;exitX=0.5;exitY=0;exitDx=0;exitDy=0;entryX=0.5;entryY=0;entryDx=0;entryDy=0;strokeColor=#808080;" edge="1" parent="1" source="cracgQuP-_dx15mc9rHu-2" target="cracgQuP-_dx15mc9rHu-4">
          <mxGeometry width="50" height="50" relative="1" as="geometry">
            <mxPoint x="850" y="160" as="sourcePoint" />
            <mxPoint x="525" y="40" as="targetPoint" />
            <Array as="points">
              <mxPoint x="525" y="40" />
              <mxPoint x="625" y="40" />
            </Array>
          </mxGeometry>
        </mxCell>
        <mxCell id="cracgQuP-_dx15mc9rHu-47" value="" style="endArrow=none;html=1;rounded=0;entryX=0.16;entryY=0.022;entryDx=0;entryDy=0;entryPerimeter=0;strokeColor=#000099;" edge="1" parent="1" target="cracgQuP-_dx15mc9rHu-6">
          <mxGeometry width="50" height="50" relative="1" as="geometry">
            <mxPoint x="600" y="60" as="sourcePoint" />
            <mxPoint x="640" y="90" as="targetPoint" />
            <Array as="points">
              <mxPoint x="600" y="30" />
              <mxPoint x="711" y="30" />
            </Array>
          </mxGeometry>
        </mxCell>
        <mxCell id="cracgQuP-_dx15mc9rHu-48" value="" style="endArrow=none;html=1;rounded=0;exitX=0.866;exitY=0.007;exitDx=0;exitDy=0;exitPerimeter=0;entryX=0;entryY=0.5;entryDx=0;entryDy=0;strokeColor=#808080;" edge="1" parent="1" source="cracgQuP-_dx15mc9rHu-5" target="cracgQuP-_dx15mc9rHu-17">
          <mxGeometry width="50" height="50" relative="1" as="geometry">
            <mxPoint x="660" y="150" as="sourcePoint" />
            <mxPoint x="710" y="100" as="targetPoint" />
            <Array as="points">
              <mxPoint x="647" y="140" />
            </Array>
          </mxGeometry>
        </mxCell>
        <mxCell id="cracgQuP-_dx15mc9rHu-49" value="NO&amp;nbsp; &amp;nbsp;C&amp;nbsp; &amp;nbsp;NC" style="rounded=0;whiteSpace=wrap;html=1;" vertex="1" parent="1">
          <mxGeometry x="935" y="60" width="70" height="20" as="geometry" />
        </mxCell>
        <mxCell id="cracgQuP-_dx15mc9rHu-50" value="Relay #5" style="text;html=1;strokeColor=none;fillColor=none;align=center;verticalAlign=middle;whiteSpace=wrap;rounded=0;" vertex="1" parent="1">
          <mxGeometry x="940" y="80" width="60" height="10" as="geometry" />
        </mxCell>
        <mxCell id="cracgQuP-_dx15mc9rHu-51" value="" style="endArrow=none;html=1;rounded=0;exitX=0.5;exitY=0;exitDx=0;exitDy=0;entryX=0.5;entryY=1;entryDx=0;entryDy=0;strokeColor=#808080;" edge="1" parent="1" source="cracgQuP-_dx15mc9rHu-7" target="cracgQuP-_dx15mc9rHu-22">
          <mxGeometry width="50" height="50" relative="1" as="geometry">
            <mxPoint x="870" y="150" as="sourcePoint" />
            <mxPoint x="920" y="100" as="targetPoint" />
            <Array as="points">
              <mxPoint x="735" y="180" />
              <mxPoint x="1085" y="180" />
            </Array>
          </mxGeometry>
        </mxCell>
        <mxCell id="cracgQuP-_dx15mc9rHu-52" value="" style="endArrow=none;html=1;rounded=0;exitX=0.879;exitY=0.145;exitDx=0;exitDy=0;exitPerimeter=0;entryX=0.5;entryY=1;entryDx=0;entryDy=0;strokeColor=#808080;" edge="1" parent="1" source="cracgQuP-_dx15mc9rHu-7" target="cracgQuP-_dx15mc9rHu-44">
          <mxGeometry width="50" height="50" relative="1" as="geometry">
            <mxPoint x="880" y="140" as="sourcePoint" />
            <mxPoint x="930" y="90" as="targetPoint" />
            <Array as="points">
              <mxPoint x="758" y="200" />
              <mxPoint x="1200" y="200" />
            </Array>
          </mxGeometry>
        </mxCell>
        <mxCell id="cracgQuP-_dx15mc9rHu-53" value="" style="endArrow=classic;html=1;rounded=0;fontFamily=Helvetica;fontSize=12;fontColor=default;entryX=0;entryY=0;entryDx=0;entryDy=0;strokeColor=#969696;" edge="1" parent="1" target="cracgQuP-_dx15mc9rHu-26">
          <mxGeometry width="50" height="50" relative="1" as="geometry">
            <mxPoint x="970" y="60" as="sourcePoint" />
            <mxPoint x="1020" y="10" as="targetPoint" />
            <Array as="points">
              <mxPoint x="970" y="30" />
              <mxPoint x="1020" y="30" />
              <mxPoint x="1020" y="90" />
            </Array>
          </mxGeometry>
        </mxCell>
        <mxCell id="cracgQuP-_dx15mc9rHu-54" value="" style="endArrow=classic;html=1;rounded=0;fontFamily=Helvetica;fontSize=12;fontColor=default;strokeColor=#FF9933;" edge="1" parent="1" target="cracgQuP-_dx15mc9rHu-55">
          <mxGeometry width="50" height="50" relative="1" as="geometry">
            <mxPoint x="500" y="60" as="sourcePoint" />
            <mxPoint x="390" y="30" as="targetPoint" />
            <Array as="points">
              <mxPoint x="500" y="30" />
            </Array>
          </mxGeometry>
        </mxCell>
        <mxCell id="cracgQuP-_dx15mc9rHu-55" value="TO: Splitter &amp;amp; R&amp;amp;S Signal Generators&lt;br&gt;&lt;font style=&quot;font-size: 8px;&quot;&gt;(SMJ and SMBV)&lt;/font&gt;" style="rounded=0;whiteSpace=wrap;html=1;strokeColor=default;fontFamily=Helvetica;fontSize=12;fontColor=default;fillColor=#CCCCCC;" vertex="1" parent="1">
          <mxGeometry x="330" width="120" height="60" as="geometry" />
        </mxCell>
        <mxCell id="rtgW14V8HbSzsuVVDKUk-4" style="edgeStyle=orthogonalEdgeStyle;rounded=0;orthogonalLoop=1;jettySize=auto;html=1;entryX=0;entryY=0.5;entryDx=0;entryDy=0;fontFamily=Helvetica;fontSize=12;fontColor=default;strokeColor=#FF8000;" edge="1" parent="1" target="cracgQuP-_dx15mc9rHu-43">
          <mxGeometry relative="1" as="geometry">
            <mxPoint x="1190.0000000000002" y="250" as="sourcePoint" />
            <Array as="points">
              <mxPoint x="1190" y="125" />
            </Array>
          </mxGeometry>
        </mxCell>
        <mxCell id="jH05feLebf8N6hF7CB95-1" value="&lt;font style=&quot;font-size: 8px;&quot;&gt;Port 1 VNA: SRC&lt;/font&gt;" style="text;html=1;strokeColor=none;fillColor=none;align=center;verticalAlign=middle;whiteSpace=wrap;rounded=0;fontSize=12;fontFamily=Helvetica;fontColor=default;" vertex="1" parent="1">
          <mxGeometry x="1080" y="250" width="60" height="30" as="geometry" />
        </mxCell>
        <mxCell id="jH05feLebf8N6hF7CB95-2" value="&lt;font style=&quot;font-size: 8px;&quot;&gt;FROM: AR Amplifier&lt;/font&gt;" style="text;html=1;strokeColor=none;fillColor=none;align=center;verticalAlign=middle;whiteSpace=wrap;rounded=0;fontSize=12;fontFamily=Helvetica;fontColor=default;" vertex="1" parent="1">
          <mxGeometry x="1160" y="250" width="60" height="30" as="geometry" />
        </mxCell>
        <mxCell id="qEag_ER_BW9Q_BWH1c51-2" value="&lt;font style=&quot;font-size: 8px;&quot;&gt;TO: AR Amplifier&lt;/font&gt;" style="text;html=1;strokeColor=none;fillColor=none;align=center;verticalAlign=middle;whiteSpace=wrap;rounded=0;fontSize=12;fontFamily=Helvetica;fontColor=default;" vertex="1" parent="1">
          <mxGeometry x="980" y="250" width="60" height="30" as="geometry" />
        </mxCell>
      </root>
    </mxGraphModel>
  </diagram>
</mxfile>
